<svg width="51" height="50" viewBox="0 0 51 50" fill="none" xmlns="http://www.w3.org/2000/svg">
<path d="M44.9226 23.8095H41.3512V14.2857C41.3512 11.6667 39.2083 9.52381 36.5893 9.52381H27.0655V5.95238C27.0655 2.66667 24.3988 0 21.1131 0C17.8274 0 15.1607 2.66667 15.1607 5.95238V9.52381H5.63691C3.01786 9.52381 0.89881 11.6667 0.89881 14.2857V23.3333H4.44643C7.99405 23.3333 10.875 26.2143 10.875 29.7619C10.875 33.3095 7.99405 36.1905 4.44643 36.1905H0.875V45.2381C0.875 47.8571 3.01786 50 5.63691 50H14.6845V46.4286C14.6845 42.881 17.5655 40 21.1131 40C24.6607 40 27.5417 42.881 27.5417 46.4286V50H36.5893C39.2083 50 41.3512 47.8571 41.3512 45.2381V35.7143H44.9226C48.2083 35.7143 50.875 33.0476 50.875 29.7619C50.875 26.4762 48.2083 23.8095 44.9226 23.8095Z" fill="#D0D0D0"/>
</svg>
