<svg width="53" height="50" viewBox="0 0 53 50" fill="none" xmlns="http://www.w3.org/2000/svg">
<path d="M47.678 10.5263H37.1517V5.26316C37.1517 3.81579 36.5727 2.5 35.599 1.55263C34.6517 0.578947 33.3359 0 31.8885 0H21.3622C18.4675 0 16.099 2.36842 16.099 5.26316V10.5263H5.57273C2.67799 10.5263 0.30957 12.8947 0.30957 15.7895V44.7368C0.30957 47.6316 2.67799 50 5.57273 50H47.678C50.5727 50 52.9411 47.6316 52.9411 44.7368V15.7895C52.9411 12.8947 50.5727 10.5263 47.678 10.5263ZM21.3622 5.26316H31.8885V10.5263H21.3622V5.26316ZM23.9938 40.7895L21.3622 38.1579L29.2569 30.2632L21.3622 22.3684L23.9938 19.7368L34.5201 30.2632L23.9938 40.7895Z" fill="#D0D0D0"/>
</svg>
