<svg width="53" height="50" viewBox="0 0 53 50" fill="none" xmlns="http://www.w3.org/2000/svg">
<path d="M47.5526 10.5263H37.0263V5.26316C37.0263 3.81579 36.4474 2.5 35.4737 1.55263C34.5263 0.578947 33.2105 0 31.7632 0H21.2368C18.3421 0 15.9737 2.36842 15.9737 5.26316V10.5263H5.44736C2.55263 10.5263 0.184204 12.8947 0.184204 15.7895V44.7368C0.184204 47.6316 2.55263 50 5.44736 50H47.5526C50.4474 50 52.8158 47.6316 52.8158 44.7368V15.7895C52.8158 12.8947 50.4474 10.5263 47.5526 10.5263ZM21.2368 5.26316H31.7632V10.5263H21.2368V5.26316ZM23.8684 40.7895L21.2368 38.1579L29.1316 30.2632L21.2368 22.3684L23.8684 19.7368L34.3947 30.2632L23.8684 40.7895Z" fill="white" fill-opacity="0.8"/>
</svg>
