<svg width="39" height="50" viewBox="0 0 39 50" fill="none" xmlns="http://www.w3.org/2000/svg">
<path d="M37.7441 26.467C33.9157 16.5181 20.2848 15.9817 23.5767 1.5217C23.8205 0.448787 22.6745 -0.380284 21.7479 0.180559C12.8963 5.39883 6.53198 15.8598 11.8722 29.5638C12.3111 30.6855 10.9943 31.734 10.0433 31.0025C5.62975 27.6618 5.16645 22.8581 5.5566 19.4199C5.70291 18.1519 4.04476 17.5423 3.33762 18.5908C1.67947 21.1268 -0.00305176 25.2234 -0.00305176 31.3926C0.923557 45.0479 12.4574 49.2421 16.6028 49.7785C22.5282 50.5344 28.9413 49.4371 33.5499 45.2186C38.6219 40.5124 40.4751 33.002 37.7441 26.467ZM15.1153 38.7324C18.6267 37.8789 20.4311 35.3429 20.9188 33.0996C21.7235 29.6126 18.5779 26.1988 20.6993 20.6879C21.504 25.2478 28.6731 28.1007 28.6731 33.0752C28.8681 39.2444 22.1868 44.5359 15.1153 38.7324Z" fill="white" fill-opacity="0.8"/>
</svg>
