<svg width="40" height="50" viewBox="0 0 40 50" fill="none" xmlns="http://www.w3.org/2000/svg">
<path d="M38.6192 26.467C34.7908 16.5181 21.1599 15.9817 24.4518 1.5217C24.6957 0.448787 23.5496 -0.380283 22.623 0.180559C13.7714 5.39883 7.4071 15.8598 12.7473 29.5638C13.1862 30.6855 11.8695 31.734 10.9185 31.0025C6.50488 27.6618 6.04157 22.8581 6.43172 19.4199C6.57803 18.1519 4.91989 17.5423 4.21274 18.5908C2.5546 21.1268 0.87207 25.2234 0.87207 31.3926C1.79868 45.0479 13.3325 49.2421 17.4779 49.7785C23.4033 50.5344 29.8164 49.4371 34.4251 45.2186C39.497 40.5124 41.3502 33.002 38.6192 26.467ZM15.9904 38.7324C19.5018 37.8789 21.3062 35.3429 21.7939 33.0996C22.5986 29.6126 19.453 26.1988 21.5745 20.6879C22.3791 25.2478 29.5482 28.1007 29.5482 33.0752C29.7432 39.2444 23.0619 44.5359 15.9904 38.7324Z" fill="#D0D0D0"/>
</svg>
