<svg width="63" height="50" viewBox="0 0 63 50" fill="none" xmlns="http://www.w3.org/2000/svg">
<path d="M56.5 0H6.50001C3.44446 0 0.944458 2.5 0.944458 5.55556V13.8889H6.50001V5.55556H56.5V44.4444H37.0556V50H56.5C59.5556 50 62.0556 47.5 62.0556 44.4444V5.55556C62.0556 2.5 59.5556 0 56.5 0ZM0.944458 41.6667V50H9.27779C9.27779 45.3889 5.55557 41.6667 0.944458 41.6667ZM0.944458 30.5556V36.1111C8.61112 36.1111 14.8333 42.3333 14.8333 50H20.3889C20.3889 39.25 11.6945 30.5556 0.944458 30.5556ZM0.944458 19.4444V25C14.75 25 25.9445 36.1944 25.9445 50H31.5C31.5 33.1111 17.8056 19.4444 0.944458 19.4444ZM28.7222 22.4722V28.0278L38.4445 33.3333L48.1667 28.0278V22.4722L38.4445 27.7778L28.7222 22.4722ZM38.4445 8.33333L23.1667 16.6667L38.4445 25L53.7222 16.6667L38.4445 8.33333Z" fill="white" fill-opacity="0.8"/>
</svg>
