<svg width="73" height="50" viewBox="0 0 73 50" fill="none" xmlns="http://www.w3.org/2000/svg">
<path d="M52.5714 25C57.5 25 61.4643 21 61.4643 16.0714C61.4643 11.1429 57.5 7.14286 52.5714 7.14286C47.6429 7.14286 43.6429 11.1429 43.6429 16.0714C43.6429 21 47.6429 25 52.5714 25ZM25.7857 21.4286C31.7143 21.4286 36.4643 16.6429 36.4643 10.7143C36.4643 4.78571 31.7143 0 25.7857 0C19.8571 0 15.0714 4.78571 15.0714 10.7143C15.0714 16.6429 19.8571 21.4286 25.7857 21.4286ZM52.5714 32.1429C46.0357 32.1429 32.9286 35.4286 32.9286 41.9643V50H72.2143V41.9643C72.2143 35.4286 59.1071 32.1429 52.5714 32.1429ZM25.7857 28.5714C17.4643 28.5714 0.785706 32.75 0.785706 41.0714V50H25.7857V41.9643C25.7857 38.9286 26.9643 33.6071 34.25 29.5714C31.1428 28.9286 28.1429 28.5714 25.7857 28.5714Z" fill="white" fill-opacity="0.8"/>
</svg>
