<svg width="51" height="50" viewBox="0 0 51 50" fill="none" xmlns="http://www.w3.org/2000/svg">
<path d="M44.5476 23.8095H40.9762V14.2857C40.9762 11.6667 38.8333 9.52381 36.2143 9.52381H26.6905V5.95238C26.6905 2.66667 24.0238 0 20.7381 0C17.4524 0 14.7857 2.66667 14.7857 5.95238V9.52381H5.26191C2.64286 9.52381 0.52381 11.6667 0.52381 14.2857V23.3333H4.07143C7.61905 23.3333 10.5 26.2143 10.5 29.7619C10.5 33.3095 7.61905 36.1905 4.07143 36.1905H0.5V45.2381C0.5 47.8571 2.64286 50 5.26191 50H14.3095V46.4286C14.3095 42.881 17.1905 40 20.7381 40C24.2857 40 27.1667 42.881 27.1667 46.4286V50H36.2143C38.8333 50 40.9762 47.8571 40.9762 45.2381V35.7143H44.5476C47.8333 35.7143 50.5 33.0476 50.5 29.7619C50.5 26.4762 47.8333 23.8095 44.5476 23.8095Z" fill="white" fill-opacity="0.8"/>
</svg>
