<svg width="47" height="50" viewBox="0 0 47 50" fill="none" xmlns="http://www.w3.org/2000/svg">
<path d="M46.2273 25L37.1363 34.0909L33.9318 30.8864L37.5227 27.2727H25.6363C24.8636 34.3182 20.5 40.2727 14.4091 43.2955C14.3182 47.0227 11.3182 50 7.59089 50C3.81816 50 0.772705 46.9545 0.772705 43.1818C0.772705 39.4091 3.81816 36.3636 7.59089 36.3636C9.74998 36.3636 11.6363 37.3864 12.8863 38.9545C17.2045 36.6136 20.2954 32.3409 21.0227 27.2727H13.9773C13.0454 29.9091 10.5454 31.8182 7.59089 31.8182C3.81816 31.8182 0.772705 28.7727 0.772705 25C0.772705 21.2273 3.81816 18.1818 7.59089 18.1818C10.5454 18.1818 13.0454 20.0909 14 22.7273H21.0454C20.3182 17.6591 17.2045 13.4091 12.8863 11.0455C11.6363 12.6136 9.74998 13.6364 7.59089 13.6364C3.81816 13.6364 0.772705 10.5909 0.772705 6.81818C0.772705 3.04545 3.81816 0 7.59089 0C11.3182 0 14.3182 2.97727 14.3863 6.70455C20.4773 9.72727 24.8409 15.6818 25.6136 22.7273H37.5L33.9091 19.1136L37.1363 15.9091L46.2273 25Z" fill="white" fill-opacity="0.8"/>
</svg>
