<svg width="47" height="50" viewBox="0 0 47 50" fill="none" xmlns="http://www.w3.org/2000/svg">
<path d="M46.352 25L37.2611 34.0909L34.0566 30.8864L37.6475 27.2727H25.7611C24.9884 34.3182 20.6247 40.2727 14.5338 43.2955C14.4429 47.0227 11.4429 50 7.71564 50C3.94292 50 0.897461 46.9545 0.897461 43.1818C0.897461 39.4091 3.94292 36.3636 7.71564 36.3636C9.87473 36.3636 11.7611 37.3864 13.0111 38.9545C17.3293 36.6136 20.4202 32.3409 21.1475 27.2727H14.102C13.1702 29.9091 10.6702 31.8182 7.71564 31.8182C3.94292 31.8182 0.897461 28.7727 0.897461 25C0.897461 21.2273 3.94292 18.1818 7.71564 18.1818C10.6702 18.1818 13.1702 20.0909 14.1247 22.7273H21.1702C20.4429 17.6591 17.3293 13.4091 13.0111 11.0455C11.7611 12.6136 9.87473 13.6364 7.71564 13.6364C3.94292 13.6364 0.897461 10.5909 0.897461 6.81818C0.897461 3.04545 3.94292 0 7.71564 0C11.4429 0 14.4429 2.97727 14.5111 6.70455C20.602 9.72727 24.9656 15.6818 25.7384 22.7273H37.6247L34.0338 19.1136L37.2611 15.9091L46.352 25Z" fill="#D0D0D0"/>
</svg>
