<svg width="53" height="50" viewBox="0 0 53 50" fill="none" xmlns="http://www.w3.org/2000/svg">
<g clip-path="url(#clip0_502_282)">
<path fill-rule="evenodd" clip-rule="evenodd" d="M22.2724 3.90244C22.0827 3.55014 21.9743 3.14363 21.9472 2.68293V2.47967C21.9201 2.01897 21.9743 1.59892 22.1098 1.21951C22.2724 0.867209 22.5027 0.582656 22.8008 0.365854C23.0989 0.149052 23.4377 0.0271004 23.8171 1.24332e-07C24.2236 -0.0271001 24.5894 0.0542007 24.9146 0.243903C25.2398 0.406504 25.4837 0.663957 25.6463 1.01626C25.836 1.34146 25.9444 1.74797 25.9715 2.23577L26.0122 2.43902C26.0393 2.89973 25.9715 3.30623 25.8089 3.65854C25.6734 4.03794 25.4566 4.33604 25.1585 4.55285C24.8604 4.74255 24.5217 4.85095 24.1423 4.87805C23.7358 4.90515 23.3699 4.8374 23.0447 4.6748C22.7195 4.5122 22.4621 4.25474 22.2724 3.90244ZM24.6707 1.13821C24.8604 1.38211 24.9688 1.76152 24.9959 2.27642L25.0366 2.52033C25.0637 3.00813 24.9959 3.38753 24.8333 3.65854C24.6707 3.92954 24.4268 4.06504 24.1016 4.06504C23.7493 4.09214 23.4783 3.98374 23.2886 3.73984C23.0989 3.46883 22.9905 3.08943 22.9634 2.60163L22.9228 2.39837C22.8957 1.88347 22.9634 1.50407 23.126 1.26016C23.2886 0.98916 23.5461 0.840109 23.8984 0.813008C24.2236 0.785908 24.481 0.894309 24.6707 1.13821ZM18.4512 5.97561L17.9228 4.39024L18.7358 4.14634C19.2778 3.95664 19.6572 3.68564 19.874 3.33333C20.0908 2.98103 20.1314 2.58808 19.9959 2.15447C19.9688 2.07317 19.9417 2.00542 19.9146 1.95122C19.8875 1.86992 19.8604 1.80217 19.8333 1.74797C19.7791 1.69377 19.7385 1.63957 19.7114 1.58537C19.6572 1.53117 19.603 1.47696 19.5488 1.42276C19.332 1.23306 19.0745 1.12466 18.7764 1.09756C18.4783 1.04336 18.1531 1.07046 17.8008 1.17886L16.0528 1.74797L17.5163 6.30081L18.4512 5.97561ZM18.0854 1.91057C18.3022 1.82927 18.5054 1.84282 18.6951 1.95122C18.8577 2.03252 18.9797 2.18157 19.061 2.39837C19.1152 2.61518 19.1016 2.80488 19.0203 2.96748C18.939 3.13008 18.7764 3.25203 18.5325 3.33333L17.6789 3.61789L17.2317 2.19512L18.0854 1.91057ZM13.6951 8.41463L11.5813 5.0813L13.1667 4.06504L15.3211 7.39837L16.1342 6.86992L13.5732 2.84553L10.3211 4.9187L12.8821 8.94309L13.6951 8.41463ZM28.3293 4.26829C28.6003 4.4851 28.9119 4.63415 29.2642 4.71545L29.3455 4.7561L29.2236 5.3252L30.1179 5.56911L30.2805 4.95935C30.8767 5.09485 31.3916 5.0271 31.8252 4.7561C32.2588 4.4851 32.5434 4.06504 32.6789 3.49594C32.7602 3.11653 32.7466 2.76423 32.6382 2.43902C32.6382 2.35772 32.6111 2.27642 32.5569 2.19512C32.5298 2.11382 32.4892 2.04607 32.435 1.99187C32.4079 1.91057 32.3672 1.84282 32.313 1.78862C32.2588 1.73442 32.1911 1.66667 32.1098 1.58537C32.0556 1.53117 31.9878 1.49051 31.9065 1.46341C31.8252 1.40921 31.7575 1.35501 31.7033 1.30081C31.622 1.27371 31.5407 1.24661 31.4594 1.21951C31.351 1.19241 31.2561 1.16531 31.1748 1.13821H31.1342L31.2561 0.528455L30.3211 0.325203L30.1992 0.894309H30.1179C29.7656 0.813008 29.4268 0.826558 29.1016 0.934959C28.7764 1.01626 28.4919 1.19241 28.248 1.46341C28.0312 1.70732 27.8821 2.01897 27.8008 2.39837C27.7195 2.77778 27.7195 3.13008 27.8008 3.45528C27.9092 3.78049 28.0854 4.05149 28.3293 4.26829ZM31.0122 1.91057C31.3374 1.99187 31.5678 2.15447 31.7033 2.39837C31.8388 2.64228 31.8659 2.94038 31.7846 3.29268C31.7033 3.64499 31.5407 3.88889 31.2968 4.02439C31.08 4.18699 30.8225 4.24119 30.5244 4.18699L30.4431 4.14634L30.9715 1.91057H31.0122ZM28.6951 2.60163C28.7764 2.22222 28.9255 1.96477 29.1423 1.82927C29.3591 1.66667 29.6301 1.61247 29.9553 1.66667L30.0366 1.70732L29.5081 3.94309H29.4675C29.1423 3.86179 28.9119 3.69919 28.7764 3.45528C28.6409 3.21138 28.6138 2.92683 28.6951 2.60163ZM34.4675 6.09756L35.0772 4.95935L36.7439 5.81301L37.1098 5.1626L35.4024 4.26829L35.9309 3.25203L37.8821 4.26829L38.2886 3.57724L35.4431 2.11382L33.248 6.34146L36.0935 7.80488L36.4187 7.11382L34.4675 6.09756ZM38.3699 9.71545C38.8035 10.0678 39.2507 10.2439 39.7114 10.2439C40.145 10.2439 40.5515 10.0678 40.9309 9.71545L40.1585 9.06504C39.9688 9.25474 39.7656 9.36314 39.5488 9.39024C39.3591 9.39024 39.1423 9.29539 38.8984 9.10569C38.6545 8.88889 38.5461 8.63144 38.5732 8.33333C38.6274 8.06233 38.8171 7.72358 39.1423 7.31707L39.3862 7.07317C39.7114 6.69377 40.0095 6.46341 40.2805 6.38211C40.5515 6.32791 40.8089 6.40921 41.0529 6.62602C41.2968 6.81572 41.4187 7.00542 41.4187 7.19512C41.4458 7.41192 41.3645 7.64228 41.1748 7.88618L41.9472 8.49594C42.2453 8.06233 42.3672 7.62873 42.313 7.19512C42.2317 6.76152 41.9878 6.36856 41.5813 6.01626C41.2832 5.74526 40.958 5.58266 40.6057 5.52846C40.2534 5.47426 39.9011 5.52846 39.5488 5.69106C39.1965 5.85366 38.8713 6.11111 38.5732 6.46341L38.4106 6.66667C37.9499 7.20867 37.706 7.75068 37.6789 8.29268C37.6789 8.83469 37.9092 9.30894 38.3699 9.71545ZM42.8415 14.2276C43.2751 14.336 43.7222 14.2683 44.1829 14.0244L43.6138 13.2114C43.3428 13.3469 43.1125 13.4011 42.9228 13.374C42.7331 13.3198 42.5434 13.1707 42.3537 12.9268C42.164 12.6558 42.1233 12.3848 42.2317 12.1138C42.3401 11.8428 42.6111 11.5583 43.0447 11.2602L43.3293 11.0569C43.7358 10.7859 44.0745 10.6504 44.3455 10.6504C44.6436 10.6504 44.8875 10.7859 45.0772 11.0569C45.2398 11.3008 45.3076 11.5176 45.2805 11.7073C45.2534 11.9241 45.1179 12.1274 44.874 12.3171L45.4431 13.1301C45.8496 12.7778 46.08 12.3848 46.1342 11.9512C46.1884 11.4905 46.0529 11.0434 45.7276 10.6098C45.5108 10.2846 45.2398 10.0407 44.9146 9.87805C44.5894 9.74255 44.2371 9.71545 43.8577 9.79675C43.4783 9.85095 43.0989 10.0135 42.7195 10.2846L42.4756 10.4472C41.8794 10.8537 41.5136 11.3279 41.3781 11.8699C41.2425 12.3848 41.351 12.8862 41.7033 13.374C42.0285 13.8347 42.4079 14.1192 42.8415 14.2276ZM43.7764 16.9512L47.3943 17.6423L44.4268 18.7398L44.7927 19.6341L49.2236 18.0081L48.8984 17.0732L45.2805 16.3821L48.248 15.2846L47.9228 14.3902L43.4512 16.0163L43.7764 16.9512ZM46.0935 21.0976C45.7683 21.2873 45.5244 21.5447 45.3618 21.8699C45.1992 22.1951 45.145 22.561 45.1992 22.9675C45.2263 23.3469 45.3482 23.6856 45.565 23.9837C45.7818 24.2818 46.0799 24.4986 46.4594 24.6341C46.8117 24.7696 47.2317 24.8103 47.7195 24.7561L47.9228 24.7154C48.3835 24.6883 48.79 24.5664 49.1423 24.3496C49.4675 24.1599 49.7114 23.9024 49.874 23.5772C50.0366 23.252 50.1043 22.8862 50.0772 22.4797C50.023 22.1003 49.8875 21.7615 49.6707 21.4634C49.4539 21.1924 49.1558 20.9756 48.7764 20.813C48.4241 20.6775 48.0041 20.6369 47.5163 20.6911L47.313 20.7317C46.8523 20.7588 46.4458 20.8808 46.0935 21.0976ZM47.8415 23.7398H47.5976C47.1098 23.794 46.7304 23.7398 46.4594 23.5772C46.1884 23.4417 46.0257 23.2114 45.9715 22.8862C45.9445 22.5339 46.0528 22.2629 46.2967 22.0732C46.5678 21.8564 46.9472 21.7344 47.435 21.7073L47.6382 21.6667C48.126 21.6396 48.5054 21.6938 48.7764 21.8293C49.0474 21.9919 49.21 22.2358 49.2642 22.561C49.2913 22.8862 49.1829 23.1572 48.939 23.374C48.6951 23.5637 48.3293 23.6856 47.8415 23.7398ZM49.9146 28.0488L50.0772 27.0732L45.3618 26.2602L45.1992 27.2358L47.2317 27.6016L46.9065 29.4715L44.874 29.1463L44.7114 30.0813L49.4268 30.8943L49.5894 29.9187L47.6789 29.5935L48.0041 27.7236L49.9146 28.0488ZM44.0203 34.3902L43.0041 34.2683L42.5569 35.2033L47.6382 35.6098L48.0041 34.7561L44.4268 31.1789L43.9797 32.1138L44.752 32.8049L44.0203 34.3902ZM44.8333 34.5122L45.3618 33.4146L46.7033 34.7154L44.8333 34.5122ZM42.5163 37.3984C42.4079 37.1545 42.4214 36.9241 42.5569 36.7073L42.6382 36.5854L42.0285 36.0569L41.8659 36.2602C41.622 36.5583 41.4865 36.8293 41.4594 37.0732C41.4594 37.3442 41.5407 37.6287 41.7033 37.9268C41.893 38.2249 42.1911 38.5637 42.5976 38.9431L43.8171 40.0813L43.0041 41.0569L39.9553 38.4959L39.3455 39.2683L42.9634 42.3171L45.0366 39.878L43.4106 38.4146C42.9499 37.981 42.6518 37.6423 42.5163 37.3984ZM36.7439 46.9919L37.5569 46.4634L34.9553 42.439L34.1423 43.0081L36.7439 46.9919ZM36.7846 41.2602C36.351 41.5583 36.0664 41.9106 35.9309 42.3171C35.8225 42.7236 35.8902 43.1301 36.1341 43.5366C36.3781 43.916 36.7168 44.1328 37.1504 44.187C37.584 44.2141 38.0312 44.0786 38.4919 43.7805L39.1423 43.374L40.0772 44.7967L40.8902 44.2683L38.2886 40.2845L36.7846 41.2602ZM38.0447 43.1301C37.8279 43.2656 37.6247 43.3198 37.435 43.2927C37.2453 43.2656 37.0827 43.1572 36.9472 42.9675C36.8388 42.7778 36.8117 42.5881 36.8659 42.3984C36.9201 42.2087 37.042 42.0461 37.2317 41.9106L37.8821 41.4634L38.6951 42.6829L38.0447 43.1301ZM60.8089 6.46341V10.0407H62.1911C62.5976 10.0136 62.9092 9.9187 63.126 9.7561C63.3428 9.5664 63.4512 9.30894 63.4512 8.98374C63.4512 8.76694 63.397 8.59079 63.2886 8.45529C63.2615 8.42818 63.2344 8.40108 63.2073 8.37398C63.1802 8.34688 63.1531 8.31978 63.126 8.29268C63.0718 8.26558 63.0312 8.25203 63.0041 8.25203C62.9499 8.22493 62.9092 8.21138 62.8821 8.21138C63.0176 8.13008 63.1396 8.02168 63.248 7.88618C63.3293 7.77778 63.3699 7.62873 63.3699 7.43902C63.3699 7.11382 63.2615 6.86992 63.0447 6.70732C62.8279 6.54472 62.5027 6.46341 62.0691 6.46341H60.8089ZM62.0691 7.96748H61.5407V7.07317H62.0285C62.2453 7.07317 62.3943 7.10027 62.4756 7.15447C62.584 7.23577 62.6382 7.35772 62.6382 7.52033C62.6382 7.81843 62.4485 7.96748 62.0691 7.96748ZM61.5407 9.43089V8.49594H62.1911C62.5434 8.49594 62.7195 8.65854 62.7195 8.98374C62.7195 9.11924 62.6653 9.22764 62.5569 9.30894C62.4756 9.39024 62.3401 9.43089 62.1504 9.43089H61.5407ZM66.4594 8.82114C66.4323 9.03794 66.3645 9.20054 66.2561 9.30894C66.1477 9.41734 65.9715 9.47155 65.7276 9.47155C65.4837 9.47155 65.3076 9.39024 65.1992 9.22764C65.0908 9.03794 65.023 8.75339 64.9959 8.37398V8.08943C65.023 7.73713 65.0908 7.46613 65.1992 7.27642C65.3347 7.11382 65.5244 7.03252 65.7683 7.03252C65.9851 7.03252 66.1477 7.08672 66.2561 7.19512C66.3645 7.27642 66.4323 7.43902 66.4594 7.68293H67.1911C67.1369 7.27642 66.9878 6.96477 66.7439 6.74797C66.5 6.53117 66.1748 6.42276 65.7683 6.42276C65.4702 6.42276 65.1992 6.49052 64.9553 6.62602C64.7385 6.76152 64.5759 6.96477 64.4675 7.23577C64.332 7.47967 64.2642 7.77778 64.2642 8.13008V8.33333C64.2642 8.87534 64.3997 9.29539 64.6707 9.5935C64.9417 9.9187 65.294 10.0813 65.7276 10.0813C66.1612 10.0813 66.5 9.9729 66.7439 9.7561C67.0149 9.5393 67.164 9.22764 67.1911 8.82114H66.4594ZM68.7764 8.49594H70.1992V7.92683H68.7764V7.07317H70.4024V6.46341H68.0447V10.0407H70.4431V9.43089H68.7764V8.49594ZM72.0285 8.78049H72.6789C73.0854 8.78049 73.4106 8.68564 73.6545 8.49594C73.8984 8.27913 74.0203 7.99458 74.0203 7.64228C74.0203 7.42547 73.9661 7.22222 73.8577 7.03252C73.7493 6.84282 73.5867 6.70732 73.3699 6.62602C73.1802 6.51762 72.9499 6.46341 72.6789 6.46341H71.2968V10.0407H72.0285V8.78049ZM72.0285 8.17073V7.07317H72.6789C72.8686 7.07317 73.0176 7.12737 73.126 7.23577C73.2344 7.34417 73.2886 7.47967 73.2886 7.64228C73.2886 7.80488 73.2344 7.94038 73.126 8.04878C73.0176 8.13008 72.8686 8.17073 72.6789 8.17073H72.0285ZM77.6789 9.22764C77.7873 8.98374 77.8415 8.68564 77.8415 8.33333V8.17073C77.8415 7.81843 77.7873 7.50678 77.6789 7.23577C77.5434 6.96477 77.3537 6.76152 77.1098 6.62602C76.893 6.46341 76.6355 6.38211 76.3374 6.38211C76.0393 6.40921 75.7818 6.49052 75.565 6.62602C75.4837 6.65312 75.4295 6.69377 75.4024 6.74797C75.3482 6.77507 75.294 6.81572 75.2398 6.86992C75.1856 6.92412 75.145 6.97832 75.1179 7.03252C75.0637 7.11382 75.023 7.18157 74.9959 7.23577C74.8875 7.50678 74.8333 7.81843 74.8333 8.17073V8.33333C74.8333 8.68564 74.9011 8.98374 75.0366 9.22764C75.145 9.49865 75.3211 9.7019 75.565 9.8374C75.7818 10 76.0393 10.0813 76.3374 10.0813C76.4187 10.0813 76.4865 10.0678 76.5407 10.0407C76.622 10.0407 76.6897 10.0271 76.7439 10C76.8252 10 76.893 9.98645 76.9472 9.95935C77.0014 9.93225 77.0691 9.8916 77.1504 9.8374C77.2046 9.8103 77.2588 9.76965 77.313 9.71545C77.3672 9.68835 77.4079 9.6477 77.435 9.5935C77.4892 9.5393 77.5298 9.4851 77.5569 9.43089C77.6111 9.37669 77.6518 9.30894 77.6789 9.22764ZM76.9065 7.31707C77.042 7.50678 77.1098 7.79133 77.1098 8.17073V8.33333C77.1098 8.68564 77.042 8.97019 76.9065 9.18699C76.771 9.37669 76.5813 9.47155 76.3374 9.47155C76.0935 9.47155 75.9038 9.36314 75.7683 9.14634C75.6328 8.95664 75.565 8.68564 75.565 8.33333V8.13008C75.565 7.77778 75.6328 7.50678 75.7683 7.31707C75.9038 7.12737 76.0935 7.03252 76.3374 7.03252C76.5813 7.03252 76.771 7.12737 76.9065 7.31707ZM80.8496 8.82114C80.8225 9.03794 80.7547 9.20054 80.6463 9.30894C80.5379 9.41734 80.3618 9.47155 80.1179 9.47155C79.874 9.47155 79.6978 9.37669 79.5894 9.18699C79.481 9.02439 79.4268 8.75339 79.4268 8.37398V8.08943C79.4268 7.71003 79.481 7.43902 79.5894 7.27642C79.7249 7.08672 79.9146 6.99187 80.1585 6.99187C80.3753 6.99187 80.5379 7.04607 80.6463 7.15447C80.7547 7.26287 80.8225 7.43902 80.8496 7.68293H81.5813C81.5271 7.27642 81.3781 6.96477 81.1341 6.74797C80.8902 6.53117 80.565 6.42276 80.1585 6.42276C79.8604 6.42276 79.5894 6.49052 79.3455 6.62602C79.1287 6.76152 78.9661 6.96477 78.8577 7.23577C78.7222 7.47967 78.6545 7.77778 78.6545 8.13008V8.33333C78.6545 8.87534 78.79 9.29539 79.061 9.5935C79.332 9.9187 79.6843 10.0678 80.1179 10.0407C80.5515 10.0407 80.8902 9.93225 81.1341 9.71545C81.4052 9.49864 81.5542 9.20054 81.5813 8.82114H80.8496ZM84.8333 9.71545C85.0772 9.49864 85.2127 9.20054 85.2398 8.82114H84.5081C84.5081 9.03794 84.4539 9.20054 84.3455 9.30894C84.21 9.41734 84.0339 9.47155 83.8171 9.47155C83.5732 9.47155 83.397 9.37669 83.2886 9.18699C83.1531 9.02439 83.0854 8.75339 83.0854 8.37398V8.08943C83.0854 7.71003 83.1531 7.43902 83.2886 7.27642C83.397 7.08672 83.5732 6.99187 83.8171 6.99187C84.061 6.99187 84.2371 7.04607 84.3455 7.15447C84.4539 7.26287 84.5081 7.43902 84.5081 7.68293H85.2398C85.2127 7.27642 85.0772 6.96477 84.8333 6.74797C84.5623 6.53117 84.2236 6.42276 83.8171 6.42276C83.519 6.42276 83.2615 6.49052 83.0447 6.62602C82.8279 6.76152 82.6518 6.96477 82.5163 7.23577C82.4079 7.47967 82.3537 7.77778 82.3537 8.13008V8.33333C82.3537 8.87534 82.4892 9.29539 82.7602 9.5935C83.0041 9.9187 83.3564 10.0678 83.8171 10.0407C84.2236 10.0678 84.5623 9.95935 84.8333 9.71545ZM86.8659 8.82114V6.46341H86.1341V10H86.8659L88.2886 7.64228V10H89.0203V6.46341H88.2886L86.8659 8.82114ZM92.9228 6.46341H92.1911L90.7683 8.82114V6.46341H90.0366V10H90.7683L92.1911 7.64228V10H92.9228V6.46341ZM92.1098 6.05691C92.2724 5.92141 92.3537 5.74526 92.3537 5.52846H91.8252C91.8252 5.63686 91.7981 5.71816 91.7439 5.77236C91.6897 5.82656 91.6084 5.85366 91.5 5.85366C91.3916 5.85366 91.3103 5.82656 91.2561 5.77236C91.2019 5.71816 91.1748 5.63686 91.1748 5.52846H90.6463C90.6463 5.74526 90.7276 5.92141 90.8902 6.05691C91.0528 6.19241 91.2561 6.26016 91.5 6.26016C91.7439 6.26016 91.9472 6.19241 92.1098 6.05691ZM96.0122 8.82114C96.0122 9.03794 95.9445 9.20054 95.8089 9.30894C95.7005 9.41734 95.5379 9.47155 95.3211 9.47155C95.0772 9.47155 94.8875 9.37669 94.752 9.18699C94.6436 9.02439 94.5894 8.75339 94.5894 8.37398V8.08943C94.5894 7.71003 94.6572 7.43902 94.7927 7.27642C94.9011 7.08672 95.0772 6.99187 95.3211 6.99187C95.565 6.99187 95.7412 7.04607 95.8496 7.15447C95.958 7.26287 96.0122 7.43902 96.0122 7.68293H96.7439C96.7168 7.27642 96.5813 6.96477 96.3374 6.74797C96.0664 6.53117 95.7276 6.42276 95.3211 6.42276C95.023 6.42276 94.7656 6.49052 94.5488 6.62602C94.332 6.76152 94.1558 6.96477 94.0203 7.23577C93.9119 7.47967 93.8577 7.77778 93.8577 8.13008V8.33333C93.8577 8.87534 93.9932 9.29539 94.2642 9.5935C94.5081 9.9187 94.8604 10.0678 95.3211 10.0407C95.7276 10.0407 96.0664 9.93225 96.3374 9.71545C96.5813 9.49864 96.7168 9.20054 96.7439 8.82114H96.0122ZM98.3699 8.57724H98.7764L99.7114 10H100.565L99.3455 8.13008L100.443 6.46341H99.5488L98.6951 7.88618H98.3699V6.46341H97.6382V10H98.3699V8.57724ZM104.02 8.17073C104.02 7.81843 103.953 7.52033 103.817 7.27642C103.709 7.00542 103.533 6.80217 103.289 6.66667C103.072 6.50407 102.814 6.42276 102.516 6.42276C102.435 6.42276 102.367 6.43631 102.313 6.46341C102.232 6.46341 102.164 6.47697 102.11 6.50407C102.028 6.50407 101.961 6.51762 101.907 6.54472C101.852 6.57182 101.785 6.61247 101.703 6.66667C101.649 6.69377 101.595 6.73442 101.541 6.78862C101.486 6.81572 101.446 6.85637 101.419 6.91057C101.365 6.96477 101.324 7.01897 101.297 7.07317C101.243 7.12737 101.202 7.19512 101.175 7.27642C101.066 7.52033 101.012 7.81843 101.012 8.17073V8.37398C101.012 8.69919 101.066 8.99729 101.175 9.26829C101.31 9.5393 101.486 9.74255 101.703 9.87805C101.947 10.0135 102.218 10.0813 102.516 10.0813C102.57 10.0813 102.638 10.0813 102.72 10.0813C102.801 10.0813 102.869 10.0678 102.923 10.0407C102.977 10.0136 103.045 9.98645 103.126 9.95935C103.18 9.93225 103.234 9.90515 103.289 9.87805C103.37 9.85095 103.424 9.8103 103.451 9.7561C103.505 9.7019 103.56 9.6477 103.614 9.5935C103.668 9.5664 103.709 9.5122 103.736 9.43089C103.763 9.37669 103.79 9.32249 103.817 9.26829C103.953 8.99729 104.02 8.68564 104.02 8.33333V8.17073ZM103.289 8.33333C103.289 8.71274 103.221 8.99729 103.085 9.18699C102.95 9.37669 102.76 9.47155 102.516 9.47155C102.245 9.47155 102.056 9.37669 101.947 9.18699C101.812 8.97019 101.744 8.68564 101.744 8.33333V8.17073C101.744 7.79133 101.812 7.50678 101.947 7.31707C102.056 7.12737 102.245 7.03252 102.516 7.03252C102.76 7.03252 102.95 7.12737 103.085 7.31707C103.221 7.50678 103.289 7.79133 103.289 8.17073V8.33333ZM105.687 8.49594H107.069V7.92683H105.687V7.07317H107.313V6.46341H104.955V10.0407H107.313V9.43089H105.687V8.49594ZM63.6545 13.5366H62.9228V15.1626C62.706 15.2168 62.4756 15.2439 62.2317 15.2439C61.9878 15.2439 61.8252 15.1897 61.7439 15.0813C61.6355 15 61.5813 14.8645 61.5813 14.6748V13.5366H60.8496V14.6748C60.8496 15.0542 60.9715 15.3388 61.2155 15.5285C61.4323 15.7182 61.771 15.813 62.2317 15.813C62.2859 15.813 62.3401 15.813 62.3943 15.813C62.4756 15.813 62.5434 15.813 62.5976 15.813C62.6518 15.813 62.706 15.7995 62.7602 15.7724C62.8144 15.7724 62.8686 15.7724 62.9228 15.7724V17.1138H63.6545V13.5366ZM65.4431 15.5285H66.8659V14.9593H65.4431V14.1057H67.0691V13.5366H64.7114V17.0732H67.1098V16.5041H65.4431V15.5285ZM67.9634 13.5366V17.0732H68.6951V16.0976L68.6138 14.4309L69.5894 17.0732H70.0772L71.0528 14.4309L70.9715 16.0976V17.0732H71.7033V13.5366H70.7276L69.8333 16.0976L68.8984 13.5366H67.9634ZM74.9146 17.0732H75.6463V13.5366H72.7602V17.0732H73.4919V14.1057H74.9146V17.0732ZM77.3943 15.8943V13.5366H76.6626V17.0732H77.3943L78.8171 14.7154V17.0732H79.5894V13.5366H78.8171L77.3943 15.8943ZM83.3293 16.3008C83.4377 16.0298 83.4919 15.7182 83.4919 15.3659V15.2439C83.4919 14.8916 83.4377 14.5799 83.3293 14.3089C83.1938 14.0379 83.0176 13.8347 82.8008 13.6992C82.5569 13.5637 82.2859 13.4959 81.9878 13.4959C81.6897 13.4959 81.4323 13.5637 81.2155 13.6992C80.9715 13.8347 80.7954 14.0379 80.687 14.3089C80.5515 14.5799 80.4837 14.8916 80.4837 15.2439V15.4065C80.4837 15.7588 80.5515 16.0569 80.687 16.3008C80.7954 16.5718 80.9715 16.7751 81.2155 16.9106C81.4323 17.0461 81.6897 17.1138 81.9878 17.1138C82.2859 17.1138 82.5569 17.0461 82.8008 16.9106C82.855 16.8835 82.9092 16.8428 82.9634 16.7886C83.0176 16.7615 83.0583 16.7209 83.0854 16.6667C83.1396 16.6125 83.1938 16.5583 83.248 16.5041C83.2751 16.4228 83.3022 16.355 83.3293 16.3008ZM82.5569 14.3902C82.6924 14.5799 82.7602 14.8509 82.7602 15.2033V15.4065C82.7602 15.7588 82.6924 16.0434 82.5569 16.2602C82.4214 16.4499 82.2317 16.5447 81.9878 16.5447C81.7439 16.5447 81.5542 16.4363 81.4187 16.2195C81.2832 16.0298 81.2155 15.7453 81.2155 15.3659V15.2033C81.2155 14.8238 81.2832 14.5393 81.4187 14.3496C81.5542 14.1599 81.7439 14.065 81.9878 14.065C82.2317 14.065 82.4214 14.1734 82.5569 14.3902ZM87.313 13.5366H86.5813V14.9593H85.1585V13.5366H84.4268V17.0732H85.1585V15.5691H86.5813V17.0732H87.313V13.5366ZM88.8577 17.0732L89.1016 16.3415H90.4024L90.6463 17.0732H91.4187L90.1179 13.5366H89.4268L88.0854 17.0732H88.8577ZM89.3049 15.7724L89.752 14.4309L90.1992 15.7724H89.3049ZM94.4268 13.5366H91.5407V14.1057H92.5976V17.0732H93.3699V14.1057H94.4268V13.5366ZM97.3943 17.0732H98.126V13.5366H97.3943V14.9593H95.9715V13.5366H95.2398V17.0732H95.9715V15.5691H97.3943V17.0732ZM102.069 15.3659V15.2439C102.069 14.8916 102.015 14.5799 101.907 14.3089C101.771 14.0379 101.595 13.8347 101.378 13.6992C101.134 13.5637 100.863 13.4959 100.565 13.4959C100.511 13.4959 100.443 13.4959 100.362 13.4959C100.308 13.4959 100.24 13.5095 100.159 13.5366C100.104 13.5637 100.037 13.5908 99.9553 13.6179C99.9011 13.645 99.8469 13.6721 99.7927 13.6992C99.5488 13.8347 99.3726 14.0379 99.2642 14.3089C99.1287 14.5799 99.061 14.8916 99.061 15.2439V15.4065C99.061 15.7588 99.1287 16.0569 99.2642 16.3008C99.3726 16.5718 99.5488 16.7751 99.7927 16.9106C100.009 17.0461 100.267 17.1138 100.565 17.1138C100.646 17.1409 100.714 17.1409 100.768 17.1138C100.85 17.1138 100.917 17.1003 100.972 17.0732C101.053 17.0732 101.121 17.0596 101.175 17.0325C101.256 17.0054 101.324 16.9648 101.378 16.9106C101.432 16.8835 101.486 16.8428 101.541 16.7886C101.595 16.7615 101.636 16.7209 101.663 16.6667C101.717 16.6125 101.757 16.5583 101.785 16.5041C101.839 16.4228 101.879 16.355 101.907 16.3008C102.042 16.0298 102.11 15.7182 102.11 15.3659H102.069ZM101.297 15.4065C101.297 15.7588 101.229 16.0434 101.093 16.2602C100.958 16.4499 100.768 16.5447 100.524 16.5447C100.28 16.5447 100.091 16.4363 99.9553 16.2195C99.8198 16.0298 99.752 15.7453 99.752 15.3659V15.2033C99.752 14.8238 99.8198 14.5393 99.9553 14.3496C100.091 14.1599 100.28 14.065 100.524 14.065C100.768 14.065 100.958 14.1734 101.093 14.3902C101.229 14.5799 101.297 14.8509 101.297 15.2033V15.4065ZM103.695 15.5691H105.118V15H103.695V14.1463H105.362V13.5366H102.963V17.1138H105.362V16.5041H103.695V15.5691ZM64.1423 23.5772H63.7358V20.6098H61.4187L61.2968 22.1951C61.2697 22.5474 61.2155 22.832 61.1341 23.0488C61.0528 23.2927 60.9444 23.4688 60.8089 23.5772H60.5244L60.565 25.0406H61.2561V24.187H63.4106V25.0406H64.1016L64.1423 23.5772ZM61.9878 22.1545L62.0691 21.2195H62.9634V23.5772H61.622C61.8388 23.252 61.9607 22.7778 61.9878 22.1545ZM64.9146 20.6098V24.187H66.2968C66.7033 24.187 67.0149 24.0921 67.2317 23.9024C67.4485 23.7398 67.5569 23.4824 67.5569 23.1301C67.5569 22.9404 67.5027 22.7778 67.3943 22.6423C67.3672 22.5881 67.3401 22.5474 67.313 22.5203C67.2859 22.4932 67.2453 22.4661 67.1911 22.439C67.164 22.4119 67.1233 22.3984 67.0691 22.3984C67.042 22.3713 67.0014 22.3577 66.9472 22.3577C67.1098 22.3035 67.2453 22.2087 67.3537 22.0732C67.435 21.9377 67.4756 21.7751 67.4756 21.5854C67.4756 21.2873 67.3672 21.0569 67.1504 20.8943C66.9065 20.7046 66.5678 20.6098 66.1341 20.6098H64.9146ZM66.2154 22.1138H65.6463V21.2195H66.1748C66.3916 21.2195 66.5407 21.2602 66.622 21.3415C66.7033 21.3957 66.7439 21.5041 66.7439 21.6667C66.7439 21.9648 66.5678 22.1138 66.2154 22.1138ZM65.6463 23.6179V22.6423H66.3374C66.6626 22.6423 66.8252 22.8049 66.8252 23.1301C66.8252 23.2656 66.7846 23.374 66.7033 23.4553C66.5949 23.5366 66.4594 23.5908 66.2968 23.6179H65.6463ZM69.2236 23.0081V20.6098H68.4919V24.187H69.2236L70.6463 21.8293V24.187H71.3781V20.6098H70.6463L69.2236 23.0081ZM75.0366 22.7642H75.4431L76.2155 24.2276H77.1098L76.0122 22.3171L77.0691 20.6504H76.1342L75.3618 22.1138H75.0366V20.6504H74.3049V22.1138H73.939L73.126 20.6504H72.2317L73.2886 22.3171L72.1504 24.2276H73.0854L73.8577 22.7642H74.3049V24.2276H75.0366V22.7642ZM80.0366 22.0732H78.6138V21.2195H80.2805V20.6504H77.8821V24.187H80.2805V23.6179H78.6138V22.6423H80.0366V22.0732ZM83.2886 24.187H84.0203V20.6504H83.2886V22.0732H81.8659V20.6504H81.1341V24.187H81.8659V22.6829H83.2886V24.187ZM85.8089 23.0081V20.6098H85.0772V24.187H85.8089L87.2317 21.8293V24.187H87.9634V20.6098H87.2317L85.8089 23.0081ZM89.752 22.6829H91.1341V22.1138H89.752V21.2602H91.3781V20.6504H89.0203V24.2276H91.3781V23.6179H89.752V22.6829ZM63.6951 27.7642H60.8089V31.3008H61.5407V28.3333H62.9634V31.3008H63.6951V27.7642ZM67.435 30.5285C67.5705 30.2846 67.6382 29.9865 67.6382 29.6341V29.4715C67.6382 29.1192 67.5705 28.8076 67.435 28.5366C67.3266 28.2656 67.1504 28.0623 66.9065 27.9268C66.6897 27.7913 66.4323 27.7236 66.1341 27.7236C65.836 27.7236 65.565 27.7913 65.3211 27.9268C65.1043 28.0623 64.9282 28.2656 64.7927 28.5366C64.6572 28.8076 64.5894 29.1192 64.5894 29.4715V29.6341C64.5894 29.9865 64.6572 30.2981 64.7927 30.5691C64.9282 30.813 65.1043 31.0163 65.3211 31.1789C65.565 31.3144 65.836 31.3821 66.1341 31.3821C66.4323 31.3821 66.6897 31.3008 66.9065 31.1382C67.1504 31.0027 67.3266 30.7995 67.435 30.5285ZM66.7033 28.6179C66.8388 28.8076 66.9065 29.0921 66.9065 29.4715V29.6341C66.8794 30.0135 66.8117 30.2981 66.7033 30.4878C66.5677 30.6775 66.3781 30.7724 66.1341 30.7724C65.8632 30.7724 65.6599 30.6775 65.5244 30.4878C65.3889 30.271 65.3347 29.9865 65.3618 29.6341V29.4715C65.3618 29.0921 65.4295 28.8076 65.565 28.6179C65.6734 28.4282 65.8632 28.3333 66.1341 28.3333C66.3781 28.3333 66.5677 28.4282 66.7033 28.6179ZM73.0854 27.7642H70.1992V31.3415H70.9309V28.374H72.3537V31.3415H73.0854V27.7642ZM74.874 31.3008V30.0406H75.5244C75.958 30.0406 76.2968 29.9458 76.5407 29.7561C76.7575 29.5664 76.8659 29.2954 76.8659 28.9431C76.8659 28.6992 76.8117 28.4959 76.7033 28.3333C76.6762 28.2791 76.6491 28.2249 76.622 28.1707C76.5949 28.1436 76.5542 28.1165 76.5 28.0894C76.4729 28.0352 76.4323 27.9946 76.3781 27.9675C76.351 27.9404 76.3103 27.9133 76.2561 27.8862C76.0393 27.8049 75.7954 27.7642 75.5244 27.7642H74.1423V31.3008H74.874ZM75.5244 29.4715H74.874V28.3333H75.565C75.7276 28.3604 75.8631 28.4146 75.9715 28.4959C76.0799 28.6043 76.1342 28.7534 76.1342 28.9431C76.1342 29.1057 76.0799 29.2276 75.9715 29.3089C75.8631 29.4173 75.7141 29.4715 75.5244 29.4715ZM80.687 29.4309C80.687 29.0786 80.6192 28.7805 80.4837 28.5366C80.3753 28.2656 80.1992 28.0623 79.9553 27.9268C79.7385 27.7642 79.481 27.6829 79.1829 27.6829C79.1016 27.6829 79.0339 27.6965 78.9797 27.7236C78.8984 27.7236 78.8306 27.7371 78.7764 27.7642C78.6951 27.7642 78.6274 27.7778 78.5732 27.8049C78.519 27.832 78.4512 27.8726 78.3699 27.9268C78.1531 28.0623 77.977 28.2656 77.8415 28.5366C77.7331 28.7805 77.6789 29.0786 77.6789 29.4309V29.6341C77.6789 29.9593 77.7331 30.2575 77.8415 30.5285C77.977 30.7995 78.1667 31.0027 78.4106 31.1382C78.6274 31.2737 78.8848 31.3415 79.1829 31.3415C79.2642 31.3415 79.332 31.3415 79.3862 31.3415C79.4675 31.3415 79.5352 31.3279 79.5894 31.3008C79.6707 31.2737 79.7385 31.2466 79.7927 31.2195C79.8469 31.1924 79.9146 31.1653 79.9959 31.1382C80.0501 31.1111 80.1043 31.0705 80.1585 31.0163C80.2127 30.9621 80.2534 30.9079 80.2805 30.8537C80.3347 30.7995 80.3753 30.7453 80.4024 30.6911C80.4566 30.6369 80.4973 30.5827 80.5244 30.5285C80.6328 30.2575 80.687 29.9458 80.687 29.5935V29.4309ZM79.9553 29.5935C79.9553 29.9729 79.8875 30.2575 79.752 30.4472C79.6165 30.6369 79.4268 30.7317 79.1829 30.7317C78.939 30.7317 78.7493 30.6369 78.6138 30.4472C78.4783 30.2575 78.4106 29.9729 78.4106 29.5935V29.4309C78.4106 29.0515 78.4783 28.7669 78.6138 28.5772C78.7493 28.3875 78.939 28.2927 79.1829 28.2927C79.4268 28.2927 79.6165 28.3875 79.752 28.5772C79.8875 28.7669 79.9553 29.0515 79.9553 29.4309V29.5935ZM83.7764 28.0488H83.7358V27.561H83.0041V28.0488H82.9228C82.8686 28.0488 82.8144 28.0488 82.7602 28.0488C82.6789 28.0759 82.6111 28.0894 82.5569 28.0894C82.5027 28.1165 82.435 28.1436 82.3537 28.1707C82.2995 28.1978 82.2453 28.2249 82.1911 28.252C82.1369 28.2791 82.0827 28.3062 82.0285 28.3333C81.9743 28.3875 81.9336 28.4282 81.9065 28.4553C81.8523 28.5095 81.8117 28.5637 81.7846 28.6179C81.7304 28.6721 81.6897 28.7263 81.6626 28.7805C81.5542 28.9973 81.5 29.2412 81.5 29.5122C81.5 29.8103 81.5542 30.0677 81.6626 30.2846C81.7981 30.5014 81.9743 30.6775 82.1911 30.813C82.435 30.9214 82.6924 30.9756 82.9634 30.9756H83.0041V31.4228H83.7358V30.9756C84.1965 30.9756 84.5623 30.8401 84.8333 30.5691C85.1043 30.2981 85.2398 29.9458 85.2398 29.5122C85.2398 29.2412 85.1721 28.9837 85.0366 28.7398C85.0095 28.6856 84.9824 28.645 84.9553 28.6179C84.9011 28.5637 84.8604 28.5095 84.8333 28.4553C84.7791 28.4011 84.7249 28.3604 84.6707 28.3333C84.6165 28.3062 84.5623 28.2791 84.5081 28.252C84.2913 28.1165 84.0474 28.0488 83.7764 28.0488ZM82.3943 28.9024C82.5298 28.7398 82.7195 28.6585 82.9634 28.6585H83.0041V30.3659H82.9634C82.7195 30.3659 82.5298 30.2981 82.3943 30.1626C82.2588 30 82.1911 29.7967 82.1911 29.5528C82.1911 29.2547 82.2588 29.0379 82.3943 28.9024ZM83.7358 30.3659V28.6585H83.7764C84.0203 28.6585 84.21 28.7398 84.3455 28.9024C84.481 29.0379 84.5488 29.2412 84.5488 29.5122C84.5488 29.7832 84.481 30 84.3455 30.1626C84.21 30.2981 84.0203 30.3659 83.7764 30.3659H83.7358ZM88.2073 29.187H86.8252V28.3333H88.4512V27.7236H86.0935V31.3008H88.4919V30.6911H86.8252V29.7561H88.2073V29.187ZM91.622 31.0163C91.8659 30.7995 92.0014 30.5014 92.0285 30.122V30.0813H91.2968C91.2968 30.2981 91.2426 30.4607 91.1341 30.5691C90.9986 30.6775 90.8225 30.7317 90.6057 30.7317C90.3618 30.7317 90.1721 30.6504 90.0366 30.4878C89.9282 30.2981 89.874 30.0135 89.874 29.6341V29.3496C89.874 28.9973 89.9417 28.7263 90.0772 28.5366C90.1856 28.374 90.3618 28.2927 90.6057 28.2927C90.8496 28.2927 91.0257 28.3469 91.1341 28.4553C91.2426 28.5366 91.2968 28.6992 91.2968 28.9431H92.0285C92.0014 28.5366 91.8659 28.2249 91.622 28.0081C91.351 27.7913 91.0122 27.6829 90.6057 27.6829C90.3076 27.6829 90.0501 27.7507 89.8333 27.8862C89.7791 27.9404 89.7249 27.981 89.6707 28.0081C89.6165 28.0623 89.5759 28.1165 89.5488 28.1707C89.4946 28.2249 89.4539 28.2791 89.4268 28.3333C89.3726 28.3875 89.332 28.4417 89.3049 28.4959C89.1965 28.7669 89.1423 29.065 89.1423 29.3902V29.6341C89.1423 30.1491 89.2778 30.5691 89.5488 30.8943C89.7927 31.1924 90.145 31.3415 90.6057 31.3415C91.0122 31.3415 91.351 31.2331 91.622 31.0163ZM95.7276 30.0813H94.9959C94.9959 30.2981 94.9282 30.4607 94.7927 30.5691C94.6843 30.6775 94.5217 30.7317 94.3049 30.7317C94.061 30.7317 93.8713 30.6504 93.7358 30.4878C93.6274 30.2981 93.5732 30.0135 93.5732 29.6341V29.3496C93.5732 28.9973 93.6409 28.7263 93.7764 28.5366C93.8848 28.374 94.061 28.2927 94.3049 28.2927C94.5217 28.2927 94.6843 28.3469 94.7927 28.4553C94.9011 28.5366 94.9688 28.6992 94.9959 28.9431H95.7276C95.7005 28.5366 95.565 28.2249 95.3211 28.0081C95.0501 27.7913 94.7114 27.6829 94.3049 27.6829C94.0068 27.6829 93.7493 27.7507 93.5325 27.8862C93.4783 27.9404 93.4241 27.981 93.3699 28.0081C93.3157 28.0623 93.2615 28.1165 93.2073 28.1707C93.1802 28.2249 93.1396 28.2791 93.0854 28.3333C93.0583 28.3875 93.0312 28.4417 93.0041 28.4959C92.8957 28.7669 92.8415 29.065 92.8415 29.3902V29.6341C92.8415 30.1491 92.9634 30.5691 93.2073 30.8943C93.4783 31.1924 93.8442 31.3415 94.3049 31.3415C94.7114 31.3415 95.0501 31.2331 95.3211 31.0163C95.565 30.7995 95.7005 30.5014 95.7276 30.122V30.0813ZM99.4675 27.7236H98.7358L97.313 30.0813V27.7236H96.5813V31.2602H97.313L98.7358 28.9024V31.2602H99.4675V27.7236ZM103.411 29.4309C103.411 29.0786 103.356 28.7669 103.248 28.4959C103.112 28.2249 102.936 28.0217 102.72 27.8862C102.476 27.7507 102.205 27.6829 101.907 27.6829C101.852 27.6829 101.785 27.6829 101.703 27.6829C101.649 27.6829 101.581 27.6965 101.5 27.7236C101.446 27.7507 101.378 27.7778 101.297 27.8049C101.243 27.832 101.188 27.8591 101.134 27.8862C100.89 28.0217 100.714 28.2249 100.606 28.4959C100.47 28.7669 100.402 29.0786 100.402 29.4309V29.5935C100.402 29.9458 100.47 30.2575 100.606 30.5285C100.714 30.7724 100.89 30.9621 101.134 31.0976C101.351 31.2602 101.608 31.3415 101.907 31.3415C101.988 31.3415 102.069 31.3279 102.15 31.3008C102.205 31.3008 102.272 31.2873 102.354 31.2602C102.408 31.2602 102.462 31.2466 102.516 31.2195C102.598 31.1924 102.665 31.1518 102.72 31.0976C102.774 31.0705 102.828 31.0298 102.882 30.9756C102.936 30.9485 102.991 30.9079 103.045 30.8537C103.072 30.7995 103.112 30.7453 103.167 30.6911C103.194 30.6369 103.221 30.5691 103.248 30.4878C103.383 30.2439 103.438 29.9458 103.411 29.5935V29.4309ZM102.679 29.5935C102.679 29.9458 102.611 30.2304 102.476 30.4472C102.34 30.6369 102.15 30.7317 101.907 30.7317C101.663 30.7317 101.473 30.6233 101.337 30.4065C101.202 30.2168 101.134 29.9458 101.134 29.5935V29.3902C101.134 29.0379 101.202 28.7669 101.337 28.5772C101.473 28.3875 101.663 28.2927 101.907 28.2927C102.15 28.2927 102.34 28.3875 102.476 28.5772C102.611 28.7669 102.679 29.0515 102.679 29.4309V29.5935ZM106.5 31.2602H107.232V27.7236H106.5V29.1463H105.077V27.7236H104.346V31.2602H105.077V29.7561H106.5V31.2602ZM110.565 31.2602H111.337L110.037 27.6829H109.346L108.004 31.2602H108.776L109.02 30.5285H110.321L110.565 31.2602ZM109.671 28.5772L110.118 29.9187H109.224L109.671 28.5772ZM115.118 31.2195V27.6829H112.76L112.679 29.3089C112.652 29.7967 112.598 30.1355 112.516 30.3252C112.462 30.4878 112.34 30.5827 112.15 30.6098L112.028 30.6504V31.2195H112.191C112.462 31.2195 112.679 31.1653 112.841 31.0569C113.004 30.9485 113.126 30.7724 113.207 30.5285C113.289 30.2846 113.343 29.9458 113.37 29.5122L113.451 28.252H114.386V31.2195H115.118ZM116.907 27.6829H116.175V31.2195H117.516C117.923 31.2195 118.234 31.1111 118.451 30.8943C118.722 30.7046 118.858 30.4336 118.858 30.0813C118.858 29.729 118.722 29.458 118.451 29.2683C118.207 29.0515 117.882 28.9431 117.476 28.9431H116.907V27.6829ZM117.516 29.5528C117.679 29.5799 117.814 29.6341 117.923 29.7154C118.031 29.8238 118.085 29.9458 118.085 30.0813C118.085 30.271 118.031 30.4201 117.923 30.5285C117.814 30.6098 117.665 30.6504 117.476 30.6504H116.907V29.5528H117.516ZM121.866 31.2602H122.557V27.6829H121.866V29.1463H120.402V27.6829H119.671V31.2602H120.402V29.7154H121.866V31.2602ZM126.541 29.4309C126.541 29.0786 126.473 28.7669 126.337 28.4959C126.202 28.2249 126.026 28.0217 125.809 27.8862C125.565 27.7507 125.294 27.6829 124.996 27.6829C124.942 27.6829 124.874 27.6829 124.793 27.6829C124.738 27.6829 124.671 27.6965 124.589 27.7236C124.535 27.7507 124.467 27.7778 124.386 27.8049C124.332 27.832 124.278 27.8591 124.224 27.8862C123.98 28.0217 123.804 28.2249 123.695 28.4959C123.56 28.7669 123.492 29.0786 123.492 29.4309V29.5935C123.492 29.9458 123.56 30.2439 123.695 30.4878C123.804 30.7588 123.98 30.9621 124.224 31.0976C124.467 31.2331 124.725 31.3008 124.996 31.3008C125.077 31.3008 125.159 31.3008 125.24 31.3008C125.294 31.3008 125.362 31.2873 125.443 31.2602C125.497 31.2331 125.551 31.206 125.606 31.1789C125.687 31.1518 125.755 31.1247 125.809 31.0976C125.863 31.0705 125.917 31.0298 125.972 30.9756C126.026 30.9214 126.08 30.8808 126.134 30.8537C126.161 30.7995 126.202 30.7317 126.256 30.6504C126.283 30.5962 126.31 30.542 126.337 30.4878C126.473 30.2168 126.541 29.9051 126.541 29.5528V29.4309ZM125.768 29.6341C125.768 29.9865 125.701 30.2575 125.565 30.4472C125.43 30.6369 125.24 30.7317 124.996 30.7317C124.752 30.7317 124.562 30.6369 124.427 30.4472C124.291 30.2575 124.224 29.9729 124.224 29.5935V29.4309C124.224 29.0515 124.291 28.7669 124.427 28.5772C124.562 28.3875 124.752 28.2927 124.996 28.2927C125.24 28.2927 125.43 28.3875 125.565 28.5772C125.701 28.794 125.768 29.0786 125.768 29.4309V29.6341ZM129.305 30.3659L128.411 27.7642H127.435V31.3415H128.167V30.3659L128.085 28.6992L129.061 31.3415H129.549L130.524 28.6992L130.443 30.3659V31.3415H131.175V27.7642H130.199L129.305 30.3659ZM132.801 27.8049H131.988L133.248 30.3252L133.167 30.5691C133.112 30.6504 133.058 30.7182 133.004 30.7724C132.95 30.7995 132.869 30.813 132.76 30.813C132.679 30.813 132.611 30.813 132.557 30.813V31.3821L132.841 31.4228C133.221 31.4228 133.492 31.2602 133.654 30.935L133.776 30.7317L134.996 27.8049H134.224L133.573 29.4715L132.801 27.8049ZM62.6789 37.4797L61.7846 34.878H60.8089V38.4553H61.5407V37.4797L61.5 35.813L62.435 38.4553H62.9634L63.8984 35.813L63.8171 37.4797V38.4553H64.5488V34.878H63.6138L62.6789 37.4797ZM67.6382 37.7236L67.8821 38.4553H68.6545L67.313 34.9187H66.622L65.3211 38.4553H66.0935L66.3374 37.7236H67.6382ZM66.9878 35.813L67.435 37.1545H66.5407L66.9878 35.813ZM71.6626 38.1707C71.9065 37.9539 72.042 37.6558 72.0691 37.2764V37.2358H71.3374C71.3374 37.4526 71.2697 37.6152 71.1342 37.7236C71.0257 37.832 70.8632 37.8862 70.6463 37.8862C70.4024 37.8862 70.2127 37.8049 70.0772 37.6423C69.9688 37.4526 69.9146 37.168 69.9146 36.7886V36.5041C69.9146 36.1518 69.9824 35.8808 70.1179 35.6911C70.2263 35.5285 70.4024 35.4472 70.6463 35.4472C70.8903 35.4472 71.0664 35.5014 71.1748 35.6098C71.2832 35.7182 71.3374 35.8808 71.3374 36.0976H72.0691C72.042 35.6911 71.9065 35.3794 71.6626 35.1626C71.3916 34.9458 71.0528 34.8374 70.6463 34.8374C70.3482 34.8374 70.0908 34.9051 69.874 35.0406C69.6572 35.2033 69.481 35.4065 69.3455 35.6504C69.2371 35.9214 69.1829 36.2195 69.1829 36.5447V36.7886C69.1829 37.3035 69.3184 37.7236 69.5894 38.0488C69.8333 38.3469 70.1856 38.4959 70.6463 38.4959C71.0528 38.4959 71.3916 38.3875 71.6626 38.1707ZM75.6463 34.878H72.7195V35.4878H73.8171V38.4553H74.5488V35.4878H75.6463V34.878ZM77.1911 36.9106H78.5732V36.3415H77.1911V35.4878H78.8171V34.878H76.4594V38.4553H78.8171V37.8455H77.1911V36.9106ZM81.0935 37.2358C81.5 37.2358 81.8252 37.1274 82.0691 36.9106C82.313 36.7209 82.435 36.4499 82.435 36.0976C82.435 35.8537 82.3808 35.6504 82.2724 35.4878C82.164 35.2981 82.0014 35.1626 81.7846 35.0813C81.5949 34.9729 81.3645 34.9187 81.0935 34.9187H79.7114V38.4959H80.4431V37.2358H81.0935ZM80.4431 35.5285H81.0935C81.2832 35.5285 81.4323 35.5827 81.5406 35.6911C81.6491 35.7995 81.7033 35.935 81.7033 36.0976C81.7033 36.2602 81.6491 36.3957 81.5406 36.5041C81.4323 36.5854 81.2832 36.626 81.0935 36.626H80.4431V35.5285ZM85.687 38.2114C85.958 37.9946 86.107 37.6965 86.1341 37.3171V37.2764H85.4024C85.3753 37.4932 85.3076 37.6558 85.1992 37.7642C85.0908 37.8726 84.9146 37.9268 84.6707 37.9268C84.4268 37.9268 84.2507 37.8455 84.1423 37.6829C84.0339 37.4932 83.9797 37.2087 83.9797 36.8293V36.5447C83.9797 36.1924 84.0339 35.9214 84.1423 35.7317C84.2778 35.5691 84.4675 35.4878 84.7114 35.4878C84.9282 35.4878 85.0908 35.542 85.1992 35.6504C85.3076 35.7317 85.3753 35.8943 85.4024 36.1382H86.1341C86.0799 35.7317 85.9309 35.4201 85.687 35.2033C85.4431 34.9864 85.1179 34.878 84.7114 34.878C84.4133 34.878 84.1423 34.9458 83.8984 35.0813C83.8442 35.1355 83.79 35.1762 83.7358 35.2033C83.7087 35.2575 83.668 35.3117 83.6138 35.3659C83.5596 35.4201 83.519 35.4743 83.4919 35.5285C83.4648 35.5827 83.4377 35.6369 83.4106 35.6911C83.2751 35.9621 83.2073 36.2602 83.2073 36.5854V36.8293C83.2073 37.3442 83.3428 37.7642 83.6138 38.0894C83.8848 38.3875 84.2371 38.5366 84.6707 38.5366C85.1043 38.5366 85.4431 38.4282 85.687 38.2114ZM89.6707 34.9187H86.7846V35.5285H87.8415V38.4959H88.5732V35.5285H89.6707V34.9187ZM90.4837 34.9187V38.4959H91.8659C92.2724 38.4959 92.584 38.4011 92.8008 38.2114C93.0176 38.0488 93.126 37.7913 93.126 37.439C93.126 37.2493 93.0718 37.0732 92.9634 36.9106C92.9363 36.8835 92.9092 36.8564 92.8821 36.8293C92.855 36.8022 92.8279 36.7751 92.8008 36.748C92.7466 36.7209 92.706 36.7073 92.6789 36.7073C92.6247 36.6802 92.584 36.6667 92.5569 36.6667C92.584 36.6396 92.6111 36.6125 92.6382 36.5854C92.6924 36.5854 92.7331 36.5718 92.7602 36.5447C92.7873 36.5176 92.8144 36.4905 92.8415 36.4634C92.8686 36.4363 92.8957 36.4092 92.9228 36.3821C93.0041 36.2466 93.0447 36.084 93.0447 35.8943C93.0447 35.5962 92.9363 35.3523 92.7195 35.1626C92.5027 35 92.1775 34.9187 91.7439 34.9187H90.4837ZM91.7439 36.4228H91.2154V35.5285H91.7439C91.9336 35.5285 92.0691 35.5556 92.1504 35.6098C92.2588 35.6911 92.313 35.813 92.313 35.9756C92.313 36.2737 92.1233 36.4228 91.7439 36.4228ZM91.2154 37.8862V36.9512H91.8659C92.2182 36.9512 92.3943 37.1138 92.3943 37.439C92.3943 37.5745 92.3401 37.6829 92.2317 37.7642C92.1504 37.8455 92.0149 37.8862 91.8252 37.8862H91.2154ZM94.5081 34.9187H93.6951L94.9553 37.4797L94.874 37.6829C94.8198 37.7913 94.7656 37.8591 94.7114 37.8862C94.6301 37.9404 94.5488 37.9675 94.4675 37.9675C94.3591 37.9675 94.2913 37.9539 94.2642 37.9268V38.5366H94.5488C94.9282 38.5366 95.1992 38.374 95.3618 38.0488L95.4837 37.8455L96.7033 34.9187H95.9309L95.2805 36.626L94.5081 34.9187ZM0.07724 25C0.07724 38.8211 11.4594 50.0813 25.4024 50.0813C28.3699 50.0813 31.2968 49.5935 34.061 48.5772L32.2317 43.4959C30.0366 44.2683 27.7602 44.6748 25.4024 44.6748C14.4268 44.6748 5.48374 35.8537 5.48374 25C5.48374 19.5935 7.67887 14.5528 11.622 10.813L7.92277 6.86992C2.84147 11.6667 0.07724 18.0894 0.07724 25Z" fill="white" fill-opacity="0.8"/>
</g>
<defs>
<clipPath id="clip0_502_282">
<rect width="52.8455" height="50" fill="white" transform="translate(0.07724)"/>
</clipPath>
</defs>
</svg>
