<svg width="13" height="15" viewBox="0 0 13 15" fill="none" xmlns="http://www.w3.org/2000/svg">
<path d="M6.47375 15.0051L6.03808 14.6316C5.43746 14.1287 0.193115 9.5995 0.193115 6.28649C0.193115 2.8178 3.00506 0.00585938 6.47375 0.00585938C9.94244 0.00585938 12.7544 2.8178 12.7544 6.28649C12.7544 9.59953 7.51004 14.1287 6.91191 14.6341L6.47375 15.0051ZM6.47375 1.36392C3.75638 1.36699 1.55428 3.56909 1.5512 6.28647C1.5512 8.36777 4.77772 11.6926 6.47375 13.2144C8.1698 11.692 11.3963 8.36525 11.3963 6.28647C11.3932 3.56909 9.19115 1.36702 6.47375 1.36392Z" fill="#141414"/>
<path d="M6.47372 8.77605C5.09876 8.77605 3.98413 7.66143 3.98413 6.28646C3.98413 4.9115 5.09876 3.79688 6.47372 3.79688C7.84868 3.79688 8.96331 4.9115 8.96331 6.28646C8.96331 7.66143 7.84871 8.77605 6.47372 8.77605ZM6.47372 5.04164C5.78624 5.04164 5.22893 5.59896 5.22893 6.28644C5.22893 6.97392 5.78624 7.53123 6.47372 7.53123C7.1612 7.53123 7.71851 6.97392 7.71851 6.28644C7.71851 5.59896 7.16123 5.04164 6.47372 5.04164Z" fill="#141414"/>
</svg>
