<svg width="17" height="17" viewBox="0 0 17 17" fill="none" xmlns="http://www.w3.org/2000/svg">
<g clip-path="url(#clip0_502_188)">
<path d="M15.8335 7.36893C15.6567 7.36893 15.4871 7.29869 15.3621 7.17367C15.2371 7.04864 15.1669 6.87907 15.1669 6.70226C15.1655 5.28821 14.6031 3.93247 13.6032 2.93259C12.6033 1.9327 11.2476 1.37034 9.83353 1.36893C9.65672 1.36893 9.48715 1.29869 9.36213 1.17367C9.2371 1.04864 9.16686 0.879075 9.16686 0.702264C9.16686 0.525453 9.2371 0.355883 9.36213 0.230859C9.48715 0.105835 9.65672 0.0355969 9.83353 0.0355969C11.601 0.037538 13.2956 0.74054 14.5454 1.99036C15.7953 3.24018 16.4983 4.93475 16.5002 6.70226C16.5002 6.87907 16.43 7.04864 16.3049 7.17367C16.1799 7.29869 16.0103 7.36893 15.8335 7.36893ZM13.8335 6.70226C13.8335 5.6414 13.4121 4.62398 12.662 3.87384C11.9118 3.12369 10.8944 2.70226 9.83353 2.70226C9.65672 2.70226 9.48715 2.7725 9.36213 2.89753C9.2371 3.02255 9.16686 3.19212 9.16686 3.36893C9.16686 3.54574 9.2371 3.71531 9.36213 3.84033C9.48715 3.96536 9.65672 4.0356 9.83353 4.0356C10.5408 4.0356 11.2191 4.31655 11.7191 4.81665C12.2192 5.31674 12.5002 5.99502 12.5002 6.70226C12.5002 6.87907 12.5704 7.04864 12.6955 7.17367C12.8205 7.29869 12.9901 7.36893 13.1669 7.36893C13.3437 7.36893 13.5132 7.29869 13.6383 7.17367C13.7633 7.04864 13.8335 6.87907 13.8335 6.70226ZM15.2889 14.8116L15.8955 14.1123C16.2817 13.7249 16.4985 13.2002 16.4985 12.6533C16.4985 12.1063 16.2817 11.5816 15.8955 11.1943C15.8749 11.1736 14.2709 9.9396 14.2709 9.9396C13.8859 9.57315 13.3746 9.3691 12.8431 9.36985C12.3116 9.37059 11.8008 9.57607 11.4169 9.9436L10.1462 11.0143C9.10898 10.585 8.16679 9.95505 7.37372 9.16061C6.58065 8.36617 5.95234 7.42289 5.52486 6.38493L6.59153 5.11826C6.95934 4.73438 7.16506 4.22351 7.16593 3.69187C7.1668 3.16022 6.96275 2.64868 6.5962 2.2636C6.5962 2.2636 5.36086 0.661597 5.3402 0.64093C4.95983 0.258096 4.44412 0.0402783 3.90448 0.0345401C3.36485 0.028802 2.84462 0.235604 2.4562 0.610264L1.68953 1.27693C-2.8398 6.5316 6.91353 16.2096 12.3415 16.0356C12.8897 16.0388 13.4329 15.9321 13.9391 15.7219C14.4453 15.5116 14.9042 15.2021 15.2889 14.8116Z" fill="#1763F4"/>
</g>
<defs>
<clipPath id="clip0_502_188">
<rect width="16" height="16" fill="white" transform="translate(0.5 0.0356445)"/>
</clipPath>
</defs>
</svg>