<svg width="25" height="24" viewBox="0 0 25 24" fill="none" xmlns="http://www.w3.org/2000/svg">
<path d="M1.5 11H14" stroke="#1763F4" stroke-linecap="round" stroke-linejoin="round"/>
<path d="M11.5 21.5H13L14 21" stroke="#1763F4" stroke-linecap="round" stroke-linejoin="round"/>
<path d="M3 5.5C9.83418 5.5 13.1658 5.5 20 5.5" stroke="#1763F4" stroke-linecap="round" stroke-linejoin="round"/>
<path d="M2.5 16.5H14" stroke="#1763F4" stroke-linecap="round" stroke-linejoin="round"/>
<path d="M12 0.5H14L16 1.5L18 2.5L19.5 4L21 6.5L22 9.5V13C22 13 21.6953 13.6095 21.5 14M11.5 0.5V21.5L9 21L5.5 19.5L2.5 16.5L1 11.5L1.5 8L3 5L5 3L7.5 1.5L9.5 0.5H11.5Z" stroke="#1763F4" stroke-linecap="round" stroke-linejoin="round"/>
<path d="M22 11H18V9V7.5L16.5 4.5L14.5 1.5L13 0.5H9.5L7.5 2.5L6 5L5 7.5V11.5L5.5 15L6 16.5L7 18.5L9.5 21L11.5 21.5" stroke="#1763F4" stroke-linecap="round" stroke-linejoin="round"/>
<path d="M16.5 21.5V12L24 18.5H20.5L22.5 22L20 23L18.5 19.5L16.5 21.5Z" stroke="#1763F4" stroke-linecap="round" stroke-linejoin="round"/>
</svg>
