<svg width="72" height="50" viewBox="0 0 72 50" fill="none" xmlns="http://www.w3.org/2000/svg">
<path d="M51.9469 25C56.8754 25 60.8397 21 60.8397 16.0714C60.8397 11.1429 56.8754 7.14286 51.9469 7.14286C47.0183 7.14286 43.0183 11.1429 43.0183 16.0714C43.0183 21 47.0183 25 51.9469 25ZM25.1611 21.4286C31.0897 21.4286 35.8397 16.6429 35.8397 10.7143C35.8397 4.78571 31.0897 0 25.1611 0C19.2326 0 14.4468 4.78571 14.4468 10.7143C14.4468 16.6429 19.2326 21.4286 25.1611 21.4286ZM51.9469 32.1429C45.4111 32.1429 32.304 35.4286 32.304 41.9643V50H71.5897V41.9643C71.5897 35.4286 58.4826 32.1429 51.9469 32.1429ZM25.1611 28.5714C16.8397 28.5714 0.161133 32.75 0.161133 41.0714V50H25.1611V41.9643C25.1611 38.9286 26.3397 33.6071 33.6254 29.5714C30.5183 28.9286 27.5183 28.5714 25.1611 28.5714Z" fill="#D0D0D0"/>
</svg>
