<svg width="41" height="40" viewBox="0 0 41 40" fill="none" xmlns="http://www.w3.org/2000/svg">
<path d="M21.6667 32.625C21.6667 28.4583 23.9583 24.7083 27.2917 22.8333C24.5833 21.7917 21.25 21.1667 17.5 21.1667C8.33333 21.1667 0.833328 24.9167 0.833328 29.5V33.6667H21.6667V32.625ZM33.125 25.3333C29.1667 25.3333 25.8333 28.6667 25.8333 32.625C25.8333 36.5833 29.1667 39.9167 33.125 39.9167C37.0833 39.9167 40.4167 36.5833 40.4167 32.625C40.4167 28.6667 37.0833 25.3333 33.125 25.3333ZM25.8333 8.66667C25.8333 13.25 22.0833 17 17.5 17C12.9167 17 9.16666 13.25 9.16666 8.66667C9.16666 4.08334 12.9167 0.333336 17.5 0.333336C22.0833 0.333336 25.8333 4.08334 25.8333 8.66667Z" fill="#D9D9D9"/>
</svg>
