<svg width="18" height="21" viewBox="0 0 18 21" fill="none" xmlns="http://www.w3.org/2000/svg">
<path d="M13.167 12.1667C13.167 12.3877 13.0792 12.5997 12.9229 12.7559C12.7666 12.9122 12.5547 13 12.3337 13H5.66699C5.44598 13 5.23402 12.9122 5.07774 12.7559C4.92146 12.5997 4.83366 12.3877 4.83366 12.1667C4.83366 11.9457 4.92146 11.7337 5.07774 11.5774C5.23402 11.4211 5.44598 11.3334 5.66699 11.3334H12.3337C12.5547 11.3334 12.7666 11.4211 12.9229 11.5774C13.0792 11.7337 13.167 11.9457 13.167 12.1667ZM9.83366 14.6667H5.66699C5.44598 14.6667 5.23402 14.7545 5.07774 14.9108C4.92146 15.067 4.83366 15.279 4.83366 15.5C4.83366 15.721 4.92146 15.933 5.07774 16.0893C5.23402 16.2456 5.44598 16.3334 5.66699 16.3334H9.83366C10.0547 16.3334 10.2666 16.2456 10.4229 16.0893C10.5792 15.933 10.667 15.721 10.667 15.5C10.667 15.279 10.5792 15.067 10.4229 14.9108C10.2666 14.7545 10.0547 14.6667 9.83366 14.6667ZM17.3337 9.23752V16.3334C17.3323 17.438 16.8929 18.4971 16.1118 19.2782C15.3307 20.0593 14.2717 20.4987 13.167 20.5H4.83366C3.729 20.4987 2.66996 20.0593 1.88884 19.2782C1.10773 18.4971 0.668315 17.438 0.666992 16.3334V4.66669C0.668315 3.56202 1.10773 2.50298 1.88884 1.72187C2.66996 0.940754 3.729 0.501342 4.83366 0.500019H8.59616C9.36251 0.498047 10.1216 0.648009 10.8297 0.941235C11.5377 1.23446 12.1806 1.66513 12.7212 2.20835L15.6245 5.11335C16.168 5.65355 16.599 6.29623 16.8923 7.00416C17.1857 7.7121 17.3357 8.4712 17.3337 9.23752ZM11.5428 3.38669C11.2806 3.13265 10.9861 2.91412 10.667 2.73669V6.33335C10.667 6.55437 10.7548 6.76633 10.9111 6.92261C11.0674 7.07889 11.2793 7.16669 11.5003 7.16669H15.097C14.9195 6.84768 14.7006 6.55347 14.4462 6.29169L11.5428 3.38669ZM15.667 9.23752C15.667 9.10002 15.6403 8.96835 15.6278 8.83335H11.5003C10.8373 8.83335 10.2014 8.56996 9.73256 8.10112C9.26372 7.63228 9.00033 6.99639 9.00033 6.33335V2.20585C8.86532 2.19335 8.73283 2.16669 8.59616 2.16669H4.83366C4.17062 2.16669 3.53473 2.43008 3.06589 2.89892C2.59705 3.36776 2.33366 4.00364 2.33366 4.66669V16.3334C2.33366 16.9964 2.59705 17.6323 3.06589 18.1011C3.53473 18.57 4.17062 18.8334 4.83366 18.8334H13.167C13.83 18.8334 14.4659 18.57 14.9348 18.1011C15.4036 17.6323 15.667 16.9964 15.667 16.3334V9.23752Z" fill="#434343"/>
</svg>
