<svg width="18" height="21" viewBox="0 0 18 21" fill="none" xmlns="http://www.w3.org/2000/svg">
<path d="M15.6253 5.11667L12.717 2.20833C11.617 1.10833 10.1503 0.5 8.59199 0.5H4.83366C2.53366 0.5 0.666992 2.36667 0.666992 4.66667V16.3333C0.666992 18.6333 2.53366 20.5 4.83366 20.5H13.167C15.467 20.5 17.3337 18.6333 17.3337 16.3333V9.24167C17.3337 7.68333 16.7253 6.21667 15.6253 5.11667ZM14.4503 6.29167C14.717 6.55833 14.942 6.85 15.1253 7.16667H11.5087C11.0503 7.16667 10.6753 6.79167 10.6753 6.33333V2.71667C10.992 2.9 11.2837 3.125 11.5503 3.39167L14.4587 6.3L14.4503 6.29167ZM15.667 16.3333C15.667 17.7083 14.542 18.8333 13.167 18.8333H4.83366C3.45866 18.8333 2.33366 17.7083 2.33366 16.3333V4.66667C2.33366 3.29167 3.45866 2.16667 4.83366 2.16667H8.59199C8.72533 2.16667 8.86699 2.16667 9.00033 2.18333V6.33333C9.00033 7.70833 10.1253 8.83333 11.5003 8.83333H15.6503C15.667 8.96667 15.667 9.1 15.667 9.24167V16.3333ZM4.90866 11.3333H4.00033C3.54199 11.3333 3.16699 11.7083 3.16699 12.1667V15.8667C3.16699 16.1583 3.40033 16.3833 3.68366 16.3833C3.96699 16.3833 4.20033 16.15 4.20033 15.8667V14.85H4.90033C5.88366 14.85 6.68366 14.0583 6.68366 13.0917C6.68366 12.125 5.88366 11.3333 4.90033 11.3333H4.90866ZM4.90866 13.8083H4.21699V12.375H4.91699C5.31699 12.375 5.65866 12.7 5.65866 13.0917C5.65866 13.4833 5.31699 13.8083 4.91699 13.8083H4.90866ZM14.8503 11.8583C14.8503 12.15 14.617 12.375 14.3337 12.375H12.9253V13.325H13.9587C14.2503 13.325 14.4753 13.5583 14.4753 13.8417C14.4753 14.125 14.242 14.3583 13.9587 14.3583H12.9253V15.8583C12.9253 16.15 12.692 16.375 12.4087 16.375C12.1253 16.375 11.892 16.1417 11.892 15.8583V11.85C11.892 11.5583 12.1253 11.3333 12.4087 11.3333H14.3337C14.6253 11.3333 14.8503 11.5667 14.8503 11.85V11.8583ZM9.07533 11.3417H8.16699C7.70866 11.3417 7.33366 11.7167 7.33366 12.175V15.875C7.33366 16.1667 7.56699 16.3417 7.85033 16.3417C8.13366 16.3417 9.06699 16.3417 9.06699 16.3417C10.0503 16.3417 10.8503 15.55 10.8503 14.5833V13.1C10.8503 12.1333 10.0503 11.3417 9.06699 11.3417H9.07533ZM9.81699 14.5833C9.81699 14.975 9.47533 15.3 9.07533 15.3H8.38366V12.3833H9.08366C9.48366 12.3833 9.82533 12.7083 9.82533 13.1V14.5833H9.81699Z" fill="#434343"/>
</svg>
