<svg width="49" height="34" viewBox="0 0 49 34" fill="none" xmlns="http://www.w3.org/2000/svg">
<path d="M32.4276 0.468063C18.5478 2.16972 12.236 3.37529 0.28125 10.3054L0.392187 10.6201L1.34229 10.6298C1.25518 11.5866 1.10332 13.9517 1.29727 17.508C-0.0291993 21.3469 1.26357 23.9548 2.47764 26.7917C2.67002 23.8409 2.65029 20.6091 1.74404 17.3927C1.5543 13.8602 1.71016 11.5376 1.7958 10.6342L9.7208 10.7099C9.6995 12.2618 9.77788 13.8135 9.95547 15.3554L9.95605 15.3556C9.84531 16.0057 9.78975 16.6944 9.78975 17.4221V33.5318H17.5404V18.32C17.5392 17.4701 17.6327 16.7348 17.8195 16.1119C19.8171 15.7843 21.7014 15.0491 23.3818 13.9455C24.6927 14.5973 25.3486 16.0549 25.3486 18.32V33.5319H33.0979V18.32C33.1036 15.1389 34.4177 13.5488 37.0406 13.5498C39.6635 13.5508 40.9749 15.1407 40.9749 18.32V33.5319H48.7188V17.4221C48.7178 14.1022 47.5649 11.5905 45.2605 9.88652C43.2334 8.36435 40.4917 7.60332 37.0351 7.60332C33.2544 7.60332 30.6491 8.50195 29.2196 10.2996C28.841 9.88925 28.414 9.52646 27.9391 9.20976C26.889 8.03398 24.8344 6.43144 24.8344 6.43144L32.5261 0.810837L32.4276 0.468063Z" fill="#D9D9D9"/>
</svg>
