<svg width="51" height="50" viewBox="0 0 51 50" fill="none" xmlns="http://www.w3.org/2000/svg">
<g clip-path="url(#clip0_549_470)">
<path d="M44.1938 46.375C43.5039 46.3741 42.8267 46.1901 42.2313 45.8417C41.7853 45.5848 41.3942 45.2426 41.0806 44.8345C40.7669 44.4265 40.5368 43.9606 40.4033 43.4636C40.2698 42.9665 40.2355 42.448 40.3025 41.9377C40.3695 41.4274 40.5365 40.9353 40.7938 40.4896C44.7729 33.6188 42.3979 24.7896 35.5042 20.8167C33.3197 19.5578 30.8421 18.8968 28.3208 18.9C27.6333 18.9 26.9458 18.7125 26.3625 18.3646C25.9156 18.1097 25.5235 17.7689 25.209 17.3617C24.8945 16.9545 24.6638 16.4891 24.5301 15.9923C24.3965 15.4955 24.3626 14.9771 24.4303 14.4671C24.4981 13.9571 24.6662 13.4655 24.925 13.0208C25.6125 11.8229 26.8938 11.0833 28.3 11.0729C32.1813 11.0729 36.0313 12.0938 39.4104 14.0458C41.936 15.5025 44.1484 17.4445 45.9201 19.7601C47.6918 22.0756 48.9878 24.7189 49.7333 27.5375C50.4947 30.3562 50.6907 33.2978 50.3098 36.1926C49.929 39.0874 48.979 41.8782 47.5146 44.4042C46.8271 45.5917 45.5146 46.3417 44.1354 46.3417L44.2188 46.3542L44.1938 46.375ZM20.2938 49.1042C16.3895 49.0994 12.5548 48.0702 9.17282 46.1195C5.79083 44.1687 2.9799 41.3647 1.02084 37.9875C0.765141 37.5431 0.599492 37.0526 0.533351 36.5442C0.46721 36.0357 0.501872 35.5192 0.635359 35.0241C0.768845 34.5291 0.998541 34.0652 1.31133 33.6589C1.62412 33.2526 2.01387 32.9119 2.45834 32.6563C4.27501 31.6063 6.76251 32.2896 7.79792 34.0854C9.06618 36.2733 10.8868 38.0897 13.0775 39.3529C15.2683 40.6161 17.7524 41.2818 20.2813 41.2833C22.7833 41.2833 25.2729 40.6167 27.4604 39.3563C29.6326 38.0663 31.4413 36.2454 32.7167 34.0646C33.0625 33.4729 33.5333 32.9729 34.1542 32.6292C35.9375 31.5667 38.4458 32.2542 39.4729 34.0375C40.1646 35.225 40.1646 36.7292 39.4417 37.9479C37.4878 41.3237 34.6836 44.1286 31.3083 46.0833C27.928 48.0257 24.0986 49.0505 20.2 49.0563L20.3042 49.1042H20.2938ZM21.8479 14.4583C20.6536 15.5607 19.701 16.8987 19.0501 18.3879C18.3993 19.8771 18.0644 21.4852 18.0667 23.1104C18.0667 25.2563 18.6438 27.2604 19.65 28.9979C20.2146 29.9688 20.5271 31.0604 20.5271 32.2521C20.5267 33.4853 20.176 34.693 19.5158 35.7346C18.8556 36.7762 17.913 37.6088 16.7979 38.1354C19.8396 39.0729 23.2146 38.7917 26.1938 37.0688C27.9821 36.0303 29.4691 34.544 30.5083 32.7563C31.0845 31.7587 31.9195 30.9352 32.925 30.3729C33.9953 29.7564 35.2183 29.4558 36.4524 29.506C37.6866 29.5561 38.8812 29.9549 39.8979 30.6563C39.5505 29.067 38.8724 27.5686 37.9075 26.2588C36.9427 24.949 35.7128 23.8571 34.2979 23.0542C32.512 22.0251 30.4862 21.4854 28.425 21.4896C27.2847 21.4807 26.1657 21.1794 25.175 20.6146C24.1057 19.9945 23.2353 19.0826 22.6656 17.9857C22.0959 16.8887 21.8506 15.6522 21.9583 14.4208L21.8688 14.4417L21.8479 14.4583ZM13.9979 36.175C12.6146 36.175 11.3188 35.425 10.6167 34.2167C8.6634 30.8421 7.63572 27.0116 7.63751 23.1125C7.64376 10.8583 17.5979 0.895836 29.8625 0.895836C30.8775 0.931067 31.839 1.35959 32.5438 2.09083C33.2486 2.82208 33.6414 3.79872 33.6393 4.81432C33.6371 5.82992 33.2401 6.80488 32.5322 7.53311C31.8243 8.26134 30.861 8.68577 29.8458 8.71667C21.9083 8.71667 15.4563 15.175 15.4563 23.1083C15.4558 25.6348 16.1212 28.1168 17.3854 30.3042C17.7281 30.8994 17.9081 31.5743 17.9072 32.2611C17.9063 32.948 17.7247 33.6224 17.3805 34.2168C17.0364 34.8112 16.5418 35.3045 15.9466 35.6471C15.3513 35.9897 14.6764 36.1697 13.9896 36.1688V36.1729L13.9979 36.175Z" fill="#D9D9D9"/>
</g>
<defs>
<clipPath id="clip0_549_470">
<rect width="50" height="50" fill="white" transform="translate(0.5)"/>
</clipPath>
</defs>
</svg>
