<svg width="62" height="50" viewBox="0 0 62 50" fill="none" xmlns="http://www.w3.org/2000/svg">
<path d="M56.3749 0H6.37489C3.31934 0 0.819336 2.5 0.819336 5.55556V13.8889H6.37489V5.55556H56.3749V44.4444H36.9304V50H56.3749C59.4304 50 61.9304 47.5 61.9304 44.4444V5.55556C61.9304 2.5 59.4304 0 56.3749 0ZM0.819336 41.6667V50H9.15267C9.15267 45.3889 5.43045 41.6667 0.819336 41.6667ZM0.819336 30.5556V36.1111C8.486 36.1111 14.7082 42.3333 14.7082 50H20.2638C20.2638 39.25 11.5693 30.5556 0.819336 30.5556ZM0.819336 19.4444V25C14.6249 25 25.8193 36.1944 25.8193 50H31.3749C31.3749 33.1111 17.6804 19.4444 0.819336 19.4444ZM28.5971 22.4722V28.0278L38.3193 33.3333L48.0416 28.0278V22.4722L38.3193 27.7778L28.5971 22.4722ZM38.3193 8.33333L23.0416 16.6667L38.3193 25L53.5971 16.6667L38.3193 8.33333Z" fill="#D0D0D0"/>
</svg>
