<svg width="20" height="8" viewBox="0 0 20 8" fill="none" xmlns="http://www.w3.org/2000/svg">
<g clip-path="url(#clip0_1154_551)">
<path d="M9.73822 0H0V0.708861H9.73822V0Z" fill="white"/>
<path d="M9.73822 1.21484H0V1.9237H9.73822V1.21484Z" fill="white"/>
<path d="M4.60733 2.93671H0V4.1519H4.60733V2.93671Z" fill="white"/>
<path d="M0 2.93671L0 8H1.25654L1.25654 2.93671H0Z" fill="white"/>
<path d="M0.101562 6.78516H4.60418V7.24085C4.60418 7.6603 4.25257 8.00035 3.81884 8.00035H0.101562V6.78516Z" fill="white"/>
<path d="M0.101562 4.6582H3.81884C4.25257 4.6582 4.60418 4.99824 4.60418 5.4177V5.87339H0.101562V4.6582Z" fill="white"/>
<path d="M3.35156 7.94964V4.75977H3.82277C4.2565 4.75977 4.60811 5.09982 4.60811 5.51926V7.19015C4.60811 7.60959 4.2565 7.94964 3.82277 7.94964H3.35156Z" fill="white"/>
<path fill-rule="evenodd" clip-rule="evenodd" d="M3.35402 5.87305H2.88281C3.14296 5.87305 3.35402 6.07715 3.35402 6.32874C3.35402 6.58034 3.14296 6.78444 2.88281 6.78444H3.35402V6.32874V5.87305Z" fill="white"/>
<path d="M9.74014 2.93652H5.13281V4.15171H9.74014V2.93652Z" fill="white"/>
<path d="M5.13281 3.5443V8H6.38936V3.5443H5.13281Z" fill="white"/>
<path d="M8.48438 3.5443V8H9.74092V3.5443H8.48438Z" fill="white"/>
<path d="M11.051 7.99981C10.6172 7.99981 10.2656 7.65976 10.2656 7.24032V3.69602C10.2656 3.27656 10.6172 2.93652 11.051 2.93652H11.5222V7.99981H11.051Z" fill="white"/>
<path d="M13.6094 7.99981V2.93652H14.0806C14.5143 2.93652 14.8659 3.27656 14.8659 3.69602V7.24032C14.8659 7.65976 14.5143 7.99981 14.0806 7.99981H13.6094Z" fill="white"/>
<path d="M14.873 4.15171H10.2656V3.69602C10.2656 3.27656 10.6172 2.93652 11.051 2.93652H14.0876C14.5213 2.93652 14.873 3.27656 14.873 3.69602V4.15171Z" fill="white"/>
<path d="M14.873 7.24085C14.873 7.6603 14.5213 8.00035 14.0876 8.00035H11.051C10.6172 8.00035 10.2656 7.6603 10.2656 7.24085V6.78516H14.873V7.24085Z" fill="white"/>
<path d="M16.176 7.99981C15.7422 7.99981 15.3906 7.65976 15.3906 7.24032V3.69602C15.3906 3.27656 15.7422 2.93652 16.176 2.93652H16.6472V7.99981H16.176Z" fill="white"/>
<path d="M18.7422 7.99981V2.93652H19.2134C19.6471 2.93652 19.9987 3.27656 19.9987 3.69602V7.24032C19.9987 7.65976 19.6471 7.99981 19.2134 7.99981H18.7422Z" fill="white"/>
<path d="M19.998 4.15171H15.3906V3.69602C15.3906 3.27656 15.7422 2.93652 16.176 2.93652H19.2126C19.6463 2.93652 19.998 3.27656 19.998 3.69602V4.15171Z" fill="white"/>
<path d="M19.998 7.24085C19.998 7.6603 19.6463 8.00035 19.2126 8.00035H16.176C15.7422 8.00035 15.3906 7.6603 15.3906 7.24085V6.78516H19.998V7.24085Z" fill="white"/>
</g>
<defs>
<clipPath id="clip0_1154_551">
<rect width="20" height="8" fill="white"/>
</clipPath>
</defs>
</svg>