<svg width="20" height="20" viewBox="0 0 20 20" fill="none" xmlns="http://www.w3.org/2000/svg">
<path d="M18.3813 4.36718L12.2363 1.43968C10.8836 0.631716 9.20002 0.61738 7.83377 1.40218L1.61963 4.36718C1.59631 4.37886 1.57213 4.39136 1.54963 4.40468C0.0749379 5.24789 -0.437015 7.12691 0.406188 8.6016C0.692008 9.10152 1.11244 9.51113 1.61963 9.78386L3.3338 10.6005V14.6839C3.33482 16.5098 4.52291 18.1229 6.26631 18.6655C7.47955 19.0165 8.73756 19.1884 10.0005 19.1755C11.2632 19.1897 12.5212 19.0193 13.7347 18.6697C15.4781 18.1271 16.6661 16.5139 16.6672 14.688V10.5989L18.3338 9.80219V16.6755C18.3338 17.1357 18.7069 17.5088 19.1672 17.5088C19.6274 17.5088 20.0005 17.1357 20.0005 16.6755V6.6755C20.006 5.69695 19.2334 4.79297 18.3813 4.36718ZM15.0004 14.688C15.0009 15.7802 14.2923 16.7462 13.2504 17.0739C12.194 17.3757 11.0992 17.5223 10.0004 17.5089C8.90174 17.5223 7.80693 17.3757 6.75045 17.0739C5.70861 16.7462 5.00002 15.7802 5.00045 14.688V11.3947L7.76463 12.7114C8.44666 13.1164 9.2256 13.3292 10.0188 13.3272C10.7738 13.3326 11.5161 13.1327 12.1663 12.7489L15.0004 11.3947V14.688ZM17.6671 8.27968L11.3821 11.2797C10.5058 11.79 9.41959 11.7755 8.55713 11.2422L2.40795 8.31718C1.72252 7.94758 1.4665 7.0923 1.83611 6.40691C1.96111 6.17511 2.14853 5.98297 2.37713 5.85218L8.62295 2.86886C9.49955 2.35972 10.5852 2.37414 11.4479 2.90636L17.5929 5.83386C18.0449 6.0848 18.3276 6.55867 18.3338 7.07554C18.3346 7.56515 18.0825 8.02047 17.6671 8.27968Z" fill="white"/>
</svg>