<svg width="61" height="45" viewBox="0 0 61 45" fill="none" xmlns="http://www.w3.org/2000/svg">
<g clip-path="url(#clip0_697_1878)">
<path d="M13.1381 23.0882V36.4706H10.4045V23.0882H13.1381ZM17.234 23.0882V25.2482H6.37256V23.0882H17.234ZM26.2579 32.0311H28.9916C28.9366 32.932 28.6899 33.7316 28.251 34.4301C27.8183 35.1286 27.2118 35.6739 26.4317 36.0661C25.6576 36.4584 24.725 36.6544 23.6339 36.6544C22.7806 36.6544 22.0157 36.5073 21.3391 36.2132C20.6626 35.9129 20.0836 35.4841 19.602 34.9264C19.1266 34.3688 18.764 33.6948 18.514 32.9044C18.2641 32.1139 18.1392 31.2285 18.1392 30.2482V29.3198C18.1392 28.3394 18.2672 27.4541 18.5232 26.6635C18.7853 25.867 19.157 25.19 19.6386 24.6323C20.1262 24.0747 20.7082 23.6459 21.3849 23.3456C22.0613 23.0453 22.8172 22.8953 23.6523 22.8953C24.7616 22.8953 25.6972 23.0973 26.459 23.5017C27.227 23.9061 27.8214 24.4638 28.2418 25.1747C28.6685 25.8854 28.9245 26.6942 29.0098 27.6011H26.267C26.2365 27.0619 26.1299 26.6054 25.947 26.2316C25.7642 25.8517 25.4868 25.5667 25.1151 25.3767C24.7494 25.1807 24.2617 25.0826 23.6523 25.0826C23.195 25.0826 22.7958 25.1685 22.4545 25.34C22.1133 25.5116 21.8267 25.772 21.5951 26.1213C21.3636 26.4706 21.1898 26.9117 21.0739 27.4448C20.9642 27.9717 20.9095 28.5907 20.9095 29.3014V30.2482C20.9095 30.9406 20.9613 31.5503 21.0649 32.0772C21.1684 32.5981 21.327 33.0392 21.5403 33.4007C21.7597 33.7561 22.0401 34.0257 22.3814 34.2095C22.7288 34.3872 23.1463 34.4761 23.6339 34.4761C24.2069 34.4761 24.6792 34.3841 25.0511 34.2003C25.4229 34.0164 25.7063 33.7438 25.9013 33.3823C26.1025 33.0209 26.2213 32.5704 26.2579 32.0311ZM41.6359 23.0882V36.4706H38.8931V25.2482H33.5445V36.4706H30.8017V23.0882H41.6359ZM46.7832 23.0882V36.4706H44.0404V23.0882H46.7832ZM54.6277 23.0882L49.526 30.9467H46.1707L45.8232 28.4926H48.0631L51.2998 23.0882H54.6277ZM51.8026 36.4706L48.0723 30.487L49.974 28.5203L55.0574 36.4706H51.8026Z" fill="#1763F4"/>
<path fill-rule="evenodd" clip-rule="evenodd" d="M28.7303 2.61356L30.4999 0L32.2695 2.61356L44.3397 20.4412H40.8007L30.4999 5.2271L20.1991 20.4412H16.6601L28.7303 2.61356ZM3.71623 39.5588L2.02358 42.0588L0.0322266 45H3.5713H57.4286H60.9676L58.9762 42.0588L57.2836 39.5588H53.7446L55.4372 42.0588H5.56265L7.25529 39.5588H3.71623Z" fill="#1763F4"/>
</g>
<defs>
<clipPath id="clip0_697_1878">
<rect width="61" height="45" fill="white"/>
</clipPath>
</defs>
</svg>
