<svg width="20" height="8" viewBox="0 0 20 8" fill="none" xmlns="http://www.w3.org/2000/svg">
<g clip-path="url(#clip0_595_216)">
<path d="M9.73822 0H0V0.708861H9.73822V0Z" fill="#D0D0D0"/>
<path d="M9.73822 1.21509H0V1.92395H9.73822V1.21509Z" fill="#D0D0D0"/>
<path d="M4.60733 2.93677H0V4.15196H4.60733V2.93677Z" fill="#D0D0D0"/>
<path d="M0 2.93671L0 8H1.25654L1.25654 2.93671H0Z" fill="#D0D0D0"/>
<path d="M0.104492 6.78491H4.60711V7.24061C4.60711 7.66005 4.2555 8.0001 3.82177 8.0001H0.104492V6.78491Z" fill="#D0D0D0"/>
<path d="M0.104492 4.6582H3.82177C4.2555 4.6582 4.60711 4.99824 4.60711 5.4177V5.87339H0.104492V4.6582Z" fill="#D0D0D0"/>
<path d="M3.35059 7.94939V4.75952H3.82179C4.25552 4.75952 4.60713 5.09957 4.60713 5.51902V7.1899C4.60713 7.60934 4.25552 7.94939 3.82179 7.94939H3.35059Z" fill="#D0D0D0"/>
<path fill-rule="evenodd" clip-rule="evenodd" d="M3.35109 5.87354H2.87988C3.14003 5.87354 3.35109 6.07764 3.35109 6.32923C3.35109 6.58083 3.14003 6.78493 2.87988 6.78493H3.35109V6.32923V5.87354Z" fill="#D0D0D0"/>
<path d="M9.73819 2.93677H5.13086V4.15196H9.73819V2.93677Z" fill="#D0D0D0"/>
<path d="M5.13086 3.5443V8H6.3874V3.5443H5.13086Z" fill="#D0D0D0"/>
<path d="M8.48145 3.5443V8H9.73799V3.5443H8.48145Z" fill="#D0D0D0"/>
<path d="M11.0471 8.00006C10.6133 8.00006 10.2617 7.66001 10.2617 7.24057V3.69626C10.2617 3.2768 10.6133 2.93677 11.0471 2.93677H11.5183V8.00006H11.0471Z" fill="#D0D0D0"/>
<path d="M13.6123 7.99982V2.93652H14.0835C14.5172 2.93652 14.8688 3.27656 14.8688 3.69602V7.24032C14.8688 7.65976 14.5172 7.99982 14.0835 7.99982H13.6123Z" fill="#D0D0D0"/>
<path d="M14.869 4.15196H10.2617V3.69626C10.2617 3.2768 10.6133 2.93677 11.0471 2.93677H14.0837C14.5174 2.93677 14.869 3.2768 14.869 3.69626V4.15196Z" fill="#D0D0D0"/>
<path d="M14.869 7.24061C14.869 7.66005 14.5174 8.0001 14.0837 8.0001H11.0471C10.6133 8.0001 10.2617 7.66005 10.2617 7.24061V6.78491H14.869V7.24061Z" fill="#D0D0D0"/>
<path d="M16.1779 8.00006C15.7442 8.00006 15.3926 7.66001 15.3926 7.24057V3.69626C15.3926 3.2768 15.7442 2.93677 16.1779 2.93677H16.6491V8.00006H16.1779Z" fill="#D0D0D0"/>
<path d="M18.7432 7.99982V2.93652H19.2144C19.6481 2.93652 19.9997 3.27656 19.9997 3.69602V7.24032C19.9997 7.65976 19.6481 7.99982 19.2144 7.99982H18.7432Z" fill="#D0D0D0"/>
<path d="M19.9999 4.15196H15.3926V3.69626C15.3926 3.2768 15.7442 2.93677 16.1779 2.93677H19.2146C19.6483 2.93677 19.9999 3.2768 19.9999 3.69626V4.15196Z" fill="#D0D0D0"/>
<path d="M19.9999 7.24061C19.9999 7.66005 19.6483 8.0001 19.2146 8.0001H16.1779C15.7442 8.0001 15.3926 7.66005 15.3926 7.24061V6.78491H19.9999V7.24061Z" fill="#D0D0D0"/>
</g>
<defs>
<clipPath id="clip0_595_216">
<rect width="20" height="8" fill="white"/>
</clipPath>
</defs>
</svg>
