<svg width="20" height="21" viewBox="0 0 20 21" fill="none" xmlns="http://www.w3.org/2000/svg">
<g clip-path="url(#clip0_1394_1139)">
<path d="M15.8333 20.1951H4.16667C3.062 20.1937 2.00296 19.7543 1.22185 18.9732C0.440735 18.1921 0.00132321 17.1331 0 16.0284L0 4.36173C0.00132321 3.25707 0.440735 2.19803 1.22185 1.41692C2.00296 0.635803 3.062 0.196392 4.16667 0.195068L15.8333 0.195068C16.938 0.196392 17.997 0.635803 18.7782 1.41692C19.5593 2.19803 19.9987 3.25707 20 4.36173V16.0284C19.9987 17.1331 19.5593 18.1921 18.7782 18.9732C17.997 19.7543 16.938 20.1937 15.8333 20.1951ZM4.16667 1.86173C3.50363 1.86173 2.86774 2.12513 2.3989 2.59397C1.93006 3.06281 1.66667 3.69869 1.66667 4.36173V16.0284C1.66667 16.6914 1.93006 17.3273 2.3989 17.7962C2.86774 18.265 3.50363 18.5284 4.16667 18.5284H15.8333C16.4964 18.5284 17.1323 18.265 17.6011 17.7962C18.0699 17.3273 18.3333 16.6914 18.3333 16.0284V4.36173C18.3333 3.69869 18.0699 3.06281 17.6011 2.59397C17.1323 2.12513 16.4964 1.86173 15.8333 1.86173H4.16667ZM7.785 14.3659C7.43761 14.3647 7.09667 14.2719 6.79667 14.0967C6.50029 13.9271 6.25429 13.6818 6.08386 13.3859C5.91342 13.0899 5.82467 12.7541 5.82667 12.4126V7.97757C5.82638 7.63602 5.91593 7.30041 6.08632 7.0044C6.25671 6.70839 6.50195 6.4624 6.79743 6.2911C7.09292 6.1198 7.42825 6.02923 7.7698 6.02846C8.11134 6.0277 8.44708 6.11677 8.74333 6.28674L13.1417 8.48257C13.4472 8.6475 13.703 8.89113 13.8827 9.18822C14.0624 9.48532 14.1593 9.82505 14.1635 10.1722C14.1676 10.5194 14.0789 10.8614 13.9064 11.1627C13.7339 11.464 13.484 11.7137 13.1825 11.8859L8.7025 14.1251C8.42309 14.2844 8.10666 14.3675 7.785 14.3659ZM7.76417 7.69923C7.71824 7.69922 7.67312 7.71129 7.63333 7.73423C7.59011 7.75827 7.55425 7.79362 7.52959 7.83649C7.50492 7.87935 7.49239 7.92812 7.49333 7.97757V12.4126C7.49362 12.4613 7.50656 12.5091 7.53091 12.5513C7.55525 12.5935 7.59015 12.6286 7.63218 12.6532C7.6742 12.6779 7.72192 12.6911 7.77062 12.6918C7.81933 12.6924 7.86736 12.6803 7.91 12.6567L12.39 10.4167C12.4234 10.3906 12.4499 10.3568 12.4673 10.3182C12.4847 10.2796 12.4925 10.2374 12.49 10.1951C12.491 10.1455 12.4785 10.0966 12.4536 10.0537C12.4288 10.0108 12.3927 9.97552 12.3492 9.95173L7.95417 7.7559C7.89687 7.72075 7.83136 7.70121 7.76417 7.69923Z" fill="#434343"/>
</g>
<defs>
<clipPath id="clip0_1394_1139">
<rect width="20" height="20" fill="white" transform="translate(0 0.195068)"/>
</clipPath>
</defs>
</svg>
