<svg width="54" height="50" viewBox="0 0 54 50" fill="none" xmlns="http://www.w3.org/2000/svg">
<g clip-path="url(#clip0_595_176)">
<path fill-rule="evenodd" clip-rule="evenodd" d="M22.8973 3.90239C22.7076 3.55009 22.5992 3.14359 22.5721 2.68288V2.47963C22.545 2.01892 22.5992 1.59887 22.7347 1.21947C22.8973 0.867163 23.1276 0.58261 23.4257 0.365808C23.7238 0.149006 24.0626 0.0270546 24.442 -4.56522e-05C24.8485 -0.0271459 25.2143 0.0541549 25.5395 0.243857C25.8647 0.406458 26.1087 0.663911 26.2713 1.01621C26.461 1.34142 26.5694 1.74792 26.5965 2.23573L26.6371 2.43898C26.6642 2.89968 26.5965 3.30619 26.4339 3.65849C26.2984 4.03789 26.0816 4.336 25.7834 4.5528C25.4853 4.7425 25.1466 4.8509 24.7672 4.878C24.3607 4.9051 23.9948 4.83735 23.6696 4.67475C23.3444 4.51215 23.087 4.2547 22.8973 3.90239ZM25.2956 1.13817C25.4853 1.38207 25.5937 1.76147 25.6208 2.27638L25.6615 2.52028C25.6886 3.00808 25.6208 3.38749 25.4582 3.65849C25.2956 3.92949 25.0517 4.06499 24.7265 4.06499C24.3742 4.0921 24.1032 3.98369 23.9135 3.73979C23.7238 3.46879 23.6154 3.08939 23.5883 2.60158L23.5477 2.39833C23.5206 1.88342 23.5883 1.50402 23.7509 1.26012C23.9135 0.989114 24.171 0.840063 24.5233 0.812962C24.8485 0.785862 25.1059 0.894263 25.2956 1.13817ZM19.0761 5.97556L18.5477 4.3902L19.3607 4.1463C19.9027 3.95659 20.2821 3.68559 20.4989 3.33329C20.7157 2.98098 20.7563 2.58803 20.6208 2.15443C20.5937 2.07313 20.5666 2.00537 20.5395 1.95117C20.5124 1.86987 20.4853 1.80212 20.4582 1.74792C20.404 1.69372 20.3634 1.63952 20.3363 1.58532C20.2821 1.53112 20.2279 1.47692 20.1737 1.42272C19.9569 1.23302 19.6994 1.12462 19.4013 1.09752C19.1032 1.04331 18.778 1.07042 18.4257 1.17882L16.6778 1.74792L18.1412 6.30077L19.0761 5.97556ZM18.7103 1.91052C18.9271 1.82922 19.1303 1.84277 19.32 1.95117C19.4826 2.03247 19.6046 2.18153 19.6859 2.39833C19.7401 2.61513 19.7265 2.80483 19.6452 2.96743C19.5639 3.13004 19.4013 3.25199 19.1574 3.33329L18.3038 3.61784L17.8566 2.19508L18.7103 1.91052ZM14.32 8.41459L12.2062 5.08126L13.7916 4.06499L15.9461 7.39833L16.7591 6.86987L14.1981 2.84548L10.9461 4.91865L13.507 8.94304L14.32 8.41459ZM28.9542 4.26825C29.2252 4.48505 29.5368 4.6341 29.8891 4.7154L29.9704 4.75605L29.8485 5.32516L30.7428 5.56906L30.9054 4.9593C31.5016 5.09481 32.0165 5.02705 32.4501 4.75605C32.8837 4.48505 33.1683 4.065 33.3038 3.49589C33.3851 3.11649 33.3715 2.76418 33.2631 2.43898C33.2631 2.35768 33.236 2.27638 33.1818 2.19508C33.1547 2.11378 33.1141 2.04602 33.0599 1.99182C33.0328 1.91052 32.9921 1.84277 32.9379 1.78857C32.8837 1.73437 32.816 1.66662 32.7347 1.58532C32.6805 1.53112 32.6127 1.49047 32.5314 1.46337C32.4501 1.40917 32.3824 1.35497 32.3282 1.30077C32.2469 1.27367 32.1656 1.24657 32.0843 1.21947C31.9759 1.19237 31.881 1.16527 31.7997 1.13817H31.7591L31.881 0.52841L30.9461 0.325158L30.8241 0.894263H30.7428C30.3905 0.812963 30.0517 0.826513 29.7265 0.934914C29.4013 1.01621 29.1168 1.19237 28.8729 1.46337C28.6561 1.70727 28.507 2.01892 28.4257 2.39833C28.3444 2.77773 28.3444 3.13004 28.4257 3.45524C28.5341 3.78044 28.7103 4.05144 28.9542 4.26825ZM31.6371 1.91052C31.9623 1.99182 32.1927 2.15443 32.3282 2.39833C32.4637 2.64223 32.4908 2.94033 32.4095 3.29264C32.3282 3.64494 32.1656 3.88884 31.9217 4.02434C31.7049 4.18695 31.4474 4.24115 31.1493 4.18695L31.068 4.1463L31.5965 1.91052H31.6371ZM29.32 2.60158C29.4013 2.22218 29.5504 1.96472 29.7672 1.82922C29.984 1.66662 30.255 1.61242 30.5802 1.66662L30.6615 1.70727L30.133 3.94304H30.0924C29.7672 3.86174 29.5368 3.69914 29.4013 3.45524C29.2658 3.21134 29.2387 2.92678 29.32 2.60158ZM35.0924 6.09752L35.7021 4.9593L37.3688 5.81296L37.7347 5.16256L36.0274 4.26825L36.5558 3.25199L38.507 4.26825L38.9135 3.57719L36.068 2.11378L33.8729 6.34142L36.7184 7.80483L37.0436 7.11378L35.0924 6.09752ZM38.9948 9.7154C39.4284 10.0677 39.8756 10.2439 40.3363 10.2439C40.7699 10.2439 41.1764 10.0677 41.5558 9.7154L40.7834 9.06499C40.5937 9.2547 40.3905 9.3631 40.1737 9.3902C39.984 9.3902 39.7672 9.29535 39.5233 9.10565C39.2794 8.88884 39.171 8.63139 39.1981 8.33329C39.2523 8.06229 39.442 7.72353 39.7672 7.31703L40.0111 7.07313C40.3363 6.69372 40.6344 6.46337 40.9054 6.38207C41.1764 6.32787 41.4339 6.40917 41.6778 6.62597C41.9217 6.81567 42.0436 7.00538 42.0436 7.19508C42.0707 7.41188 41.9894 7.64223 41.7997 7.88613L42.5721 8.49589C42.8702 8.06229 42.9921 7.62868 42.9379 7.19508C42.8566 6.76147 42.6127 6.36852 42.2062 6.01621C41.9081 5.74521 41.5829 5.58261 41.2306 5.52841C40.8783 5.47421 40.526 5.52841 40.1737 5.69101C39.8214 5.85361 39.4962 6.11107 39.1981 6.46337L39.0355 6.66662C38.5748 7.20863 38.3309 7.75063 38.3038 8.29264C38.3038 8.83464 38.5341 9.3089 38.9948 9.7154ZM43.4664 14.2276C43.9 14.336 44.3471 14.2682 44.8078 14.0243L44.2387 13.2113C43.9677 13.3468 43.7374 13.401 43.5477 13.3739C43.358 13.3197 43.1683 13.1707 42.9786 12.9268C42.7889 12.6558 42.7482 12.3848 42.8566 12.1138C42.965 11.8428 43.236 11.5582 43.6696 11.2601L43.9542 11.0569C44.3607 10.7859 44.6994 10.6504 44.9704 10.6504C45.2685 10.6504 45.5124 10.7859 45.7021 11.0569C45.8647 11.3008 45.9325 11.5176 45.9054 11.7073C45.8783 11.9241 45.7428 12.1273 45.4989 12.317L46.068 13.13C46.4745 12.7777 46.7049 12.3848 46.7591 11.9512C46.8133 11.4905 46.6778 11.0433 46.3526 10.6097C46.1358 10.2845 45.8648 10.0406 45.5395 9.878C45.2143 9.7425 44.862 9.7154 44.4826 9.7967C44.1032 9.8509 43.7238 10.0135 43.3444 10.2845L43.1005 10.4471C42.5043 10.8536 42.1385 11.3279 42.003 11.8699C41.8675 12.3848 41.9759 12.8861 42.3282 13.3739C42.6534 13.8346 43.0328 14.1192 43.4664 14.2276ZM44.4013 16.9512L48.0192 17.6422L45.0517 18.7398L45.4176 19.6341L49.8485 18.0081L49.5233 17.0731L45.9054 16.3821L48.8729 15.2845L48.5477 14.3902L44.0761 16.0162L44.4013 16.9512ZM46.7184 21.0975C46.3932 21.2872 46.1493 21.5447 45.9867 21.8699C45.8241 22.1951 45.7699 22.5609 45.8241 22.9674C45.8512 23.3468 45.9732 23.6856 46.19 23.9837C46.4068 24.2818 46.7049 24.4986 47.0843 24.6341C47.4366 24.7696 47.8566 24.8103 48.3444 24.7561L48.5477 24.7154C49.0084 24.6883 49.4149 24.5664 49.7672 24.3495C50.0924 24.1598 50.3363 23.9024 50.4989 23.5772C50.6615 23.252 50.7292 22.8861 50.7021 22.4796C50.6479 22.1002 50.5124 21.7615 50.2956 21.4634C50.0788 21.1924 49.7807 20.9756 49.4013 20.813C49.049 20.6775 48.629 20.6368 48.1412 20.691L47.9379 20.7317C47.4772 20.7588 47.0707 20.8807 46.7184 21.0975ZM48.4664 23.7398H48.2225C47.7347 23.794 47.3553 23.7398 47.0843 23.5772C46.8133 23.4417 46.6507 23.2113 46.5965 22.8861C46.5694 22.5338 46.6778 22.2628 46.9217 22.0731C47.1927 21.8563 47.5721 21.7344 48.0599 21.7073L48.2631 21.6666C48.7509 21.6395 49.1303 21.6937 49.4013 21.8292C49.6723 21.9918 49.8349 22.2357 49.8891 22.5609C49.9162 22.8861 49.8078 23.1571 49.5639 23.3739C49.32 23.5636 48.9542 23.6856 48.4664 23.7398ZM50.5395 28.0487L50.7021 27.0731L45.9867 26.2601L45.8241 27.2357L47.8566 27.6016L47.5314 29.4715L45.4989 29.1463L45.3363 30.0813L50.0517 30.8943L50.2143 29.9187L48.3038 29.5935L48.629 27.7235L50.5395 28.0487ZM44.6452 34.3902L43.629 34.2682L43.1818 35.2032L48.2631 35.6097L48.629 34.7561L45.0517 31.1788L44.6046 32.1138L45.3769 32.8048L44.6452 34.3902ZM45.4582 34.5121L45.9867 33.4146L47.3282 34.7154L45.4582 34.5121ZM43.1412 37.3983C43.0328 37.1544 43.0463 36.9241 43.1818 36.7073L43.2631 36.5853L42.6534 36.0569L42.4908 36.2601C42.2469 36.5582 42.1114 36.8292 42.0843 37.0731C42.0843 37.3441 42.1656 37.6287 42.3282 37.9268C42.5179 38.2249 42.816 38.5636 43.2225 38.943L44.442 40.0813L43.629 41.0569L40.5802 38.4959L39.9704 39.2682L43.5883 42.317L45.6615 39.878L44.0355 38.4146C43.5748 37.981 43.2767 37.6422 43.1412 37.3983ZM37.3688 46.9918L38.1818 46.4634L35.5802 42.439L34.7672 43.0081L37.3688 46.9918ZM37.4095 41.2601C36.9759 41.5582 36.6913 41.9105 36.5558 42.317C36.4474 42.7235 36.5152 43.13 36.7591 43.5365C37.003 43.9159 37.3417 44.1327 37.7753 44.1869C38.2089 44.214 38.6561 44.0785 39.1168 43.7804L39.7672 43.3739L40.7021 44.7967L41.5152 44.2682L38.9135 40.2845L37.4095 41.2601ZM38.6696 43.13C38.4528 43.2655 38.2496 43.3197 38.0599 43.2926C37.8702 43.2655 37.7076 43.1571 37.5721 42.9674C37.4637 42.7777 37.4366 42.588 37.4908 42.3983C37.545 42.2086 37.6669 42.046 37.8566 41.9105L38.507 41.4634L39.32 42.6829L38.6696 43.13ZM61.4339 6.46337V10.0406H62.816C63.2225 10.0135 63.5341 9.91865 63.7509 9.75605C63.9677 9.56635 64.0761 9.3089 64.0761 8.98369C64.0761 8.76689 64.0219 8.59074 63.9135 8.45524C63.8864 8.42814 63.8593 8.40104 63.8322 8.37394C63.8051 8.34684 63.778 8.31974 63.7509 8.29264C63.6967 8.26554 63.6561 8.25199 63.629 8.25199C63.5748 8.22489 63.5341 8.21134 63.507 8.21134C63.6425 8.13004 63.7645 8.02163 63.8729 7.88613C63.9542 7.77773 63.9948 7.62868 63.9948 7.43898C63.9948 7.11378 63.8864 6.86987 63.6696 6.70727C63.4528 6.54467 63.1276 6.46337 62.694 6.46337H61.4339ZM62.694 7.96743H62.1656V7.07313H62.6534C62.8702 7.07313 63.0192 7.10023 63.1005 7.15443C63.2089 7.23573 63.2631 7.35768 63.2631 7.52028C63.2631 7.81838 63.0734 7.96743 62.694 7.96743ZM62.1656 9.43085V8.49589H62.816C63.1683 8.49589 63.3444 8.65849 63.3444 8.98369C63.3444 9.1192 63.2902 9.2276 63.1818 9.3089C63.1005 9.3902 62.965 9.43085 62.7753 9.43085H62.1656ZM67.0843 8.82109C67.0572 9.0379 66.9894 9.2005 66.881 9.3089C66.7726 9.4173 66.5965 9.4715 66.3526 9.4715C66.1087 9.4715 65.9325 9.3902 65.8241 9.2276C65.7157 9.0379 65.6479 8.75334 65.6208 8.37394V8.08939C65.6479 7.73708 65.7157 7.46608 65.8241 7.27638C65.9596 7.11378 66.1493 7.03247 66.3932 7.03247C66.61 7.03247 66.7726 7.08668 66.881 7.19508C66.9894 7.27638 67.0572 7.43898 67.0843 7.68288H67.816C67.7618 7.27638 67.6127 6.96472 67.3688 6.74792C67.1249 6.53112 66.7997 6.42272 66.3932 6.42272C66.0951 6.42272 65.8241 6.49047 65.5802 6.62597C65.3634 6.76147 65.2008 6.96472 65.0924 7.23573C64.9569 7.47963 64.8891 7.77773 64.8891 8.13004V8.33329C64.8891 8.87529 65.0246 9.29535 65.2956 9.59345C65.5666 9.91865 65.919 10.0813 66.3526 10.0813C66.7862 10.0813 67.1249 9.97285 67.3688 9.75605C67.6398 9.53925 67.7889 9.2276 67.816 8.82109H67.0843ZM69.4013 8.49589H70.8241V7.92678H69.4013V7.07313H71.0274V6.46337H68.6696V10.0406H71.068V9.43085H69.4013V8.49589ZM72.6534 8.78044H73.3038C73.7103 8.78044 74.0355 8.68559 74.2794 8.49589C74.5233 8.27909 74.6452 7.99453 74.6452 7.64223C74.6452 7.42543 74.591 7.22218 74.4826 7.03247C74.3742 6.84277 74.2116 6.70727 73.9948 6.62597C73.8051 6.51757 73.5748 6.46337 73.3038 6.46337H71.9217V10.0406H72.6534V8.78044ZM72.6534 8.17069V7.07313H73.3038C73.4935 7.07313 73.6425 7.12733 73.7509 7.23573C73.8593 7.34413 73.9135 7.47963 73.9135 7.64223C73.9135 7.80483 73.8593 7.94033 73.7509 8.04873C73.6425 8.13004 73.4935 8.17069 73.3038 8.17069H72.6534ZM78.3038 9.2276C78.4122 8.98369 78.4664 8.68559 78.4664 8.33329V8.17069C78.4664 7.81838 78.4122 7.50673 78.3038 7.23573C78.1683 6.96472 77.9786 6.76147 77.7347 6.62597C77.5179 6.46337 77.2604 6.38207 76.9623 6.38207C76.6642 6.40917 76.4068 6.49047 76.19 6.62597C76.1087 6.65307 76.0545 6.69372 76.0274 6.74792C75.9732 6.77502 75.9189 6.81567 75.8647 6.86987C75.8105 6.92407 75.7699 6.97827 75.7428 7.03247C75.6886 7.11378 75.6479 7.18153 75.6208 7.23573C75.5124 7.50673 75.4582 7.81838 75.4582 8.17069V8.33329C75.4582 8.68559 75.526 8.98369 75.6615 9.2276C75.7699 9.4986 75.946 9.70185 76.19 9.83735C76.4068 9.99995 76.6642 10.0813 76.9623 10.0813C77.0436 10.0813 77.1114 10.0677 77.1656 10.0406C77.2469 10.0406 77.3146 10.0271 77.3688 9.99995C77.4501 9.99995 77.5179 9.9864 77.5721 9.9593C77.6263 9.9322 77.694 9.89155 77.7753 9.83735C77.8295 9.81025 77.8837 9.7696 77.9379 9.7154C77.9921 9.6883 78.0328 9.64765 78.0599 9.59345C78.1141 9.53925 78.1547 9.48505 78.1818 9.43085C78.236 9.37665 78.2767 9.3089 78.3038 9.2276ZM77.5314 7.31703C77.6669 7.50673 77.7347 7.79128 77.7347 8.17069V8.33329C77.7347 8.68559 77.6669 8.97014 77.5314 9.18695C77.3959 9.37665 77.2062 9.4715 76.9623 9.4715C76.7184 9.4715 76.5287 9.3631 76.3932 9.1463C76.2577 8.95659 76.19 8.68559 76.19 8.33329V8.13004C76.19 7.77773 76.2577 7.50673 76.3932 7.31703C76.5287 7.12733 76.7184 7.03247 76.9623 7.03247C77.2062 7.03247 77.3959 7.12733 77.5314 7.31703ZM81.4745 8.82109C81.4474 9.0379 81.3797 9.2005 81.2713 9.3089C81.1629 9.4173 80.9867 9.4715 80.7428 9.4715C80.4989 9.4715 80.3227 9.37665 80.2143 9.18695C80.1059 9.02435 80.0517 8.75334 80.0517 8.37394V8.08939C80.0517 7.70998 80.1059 7.43898 80.2143 7.27638C80.3498 7.08668 80.5395 6.99182 80.7834 6.99182C81.0003 6.99182 81.1629 7.04603 81.2713 7.15443C81.3797 7.26283 81.4474 7.43898 81.4745 7.68288H82.2062C82.152 7.27638 82.003 6.96472 81.7591 6.74792C81.5152 6.53112 81.19 6.42272 80.7834 6.42272C80.4853 6.42272 80.2143 6.49047 79.9704 6.62597C79.7536 6.76147 79.591 6.96472 79.4826 7.23573C79.3471 7.47963 79.2794 7.77773 79.2794 8.13004V8.33329C79.2794 8.87529 79.4149 9.29535 79.6859 9.59345C79.9569 9.91865 80.3092 10.0677 80.7428 10.0406C81.1764 10.0406 81.5152 9.9322 81.7591 9.7154C82.0301 9.4986 82.1791 9.2005 82.2062 8.82109H81.4745ZM85.4582 9.7154C85.7021 9.4986 85.8376 9.2005 85.8648 8.82109H85.133C85.133 9.0379 85.0788 9.2005 84.9704 9.3089C84.8349 9.4173 84.6588 9.4715 84.442 9.4715C84.1981 9.4715 84.0219 9.37665 83.9135 9.18695C83.778 9.02435 83.7103 8.75334 83.7103 8.37394V8.08939C83.7103 7.70998 83.778 7.43898 83.9135 7.27638C84.0219 7.08668 84.1981 6.99182 84.442 6.99182C84.6859 6.99182 84.862 7.04603 84.9704 7.15443C85.0788 7.26283 85.133 7.43898 85.133 7.68288H85.8648C85.8376 7.27638 85.7021 6.96472 85.4582 6.74792C85.1872 6.53112 84.8485 6.42272 84.442 6.42272C84.1439 6.42272 83.8864 6.49047 83.6696 6.62597C83.4528 6.76147 83.2767 6.96472 83.1412 7.23573C83.0328 7.47963 82.9786 7.77773 82.9786 8.13004V8.33329C82.9786 8.87529 83.1141 9.29535 83.3851 9.59345C83.629 9.91865 83.9813 10.0677 84.442 10.0406C84.8485 10.0677 85.1872 9.9593 85.4582 9.7154ZM87.4908 8.82109V6.46337H86.7591V9.99995H87.4908L88.9135 7.64223V9.99995H89.6452V6.46337H88.9135L87.4908 8.82109ZM93.5477 6.46337H92.816L91.3932 8.82109V6.46337H90.6615V9.99995H91.3932L92.816 7.64223V9.99995H93.5477V6.46337ZM92.7347 6.05686C92.8973 5.92136 92.9786 5.74521 92.9786 5.52841H92.4501C92.4501 5.63681 92.423 5.71811 92.3688 5.77231C92.3146 5.82651 92.2333 5.85361 92.1249 5.85361C92.0165 5.85361 91.9352 5.82651 91.881 5.77231C91.8268 5.71811 91.7997 5.63681 91.7997 5.52841H91.2713C91.2713 5.74521 91.3526 5.92136 91.5152 6.05686C91.6778 6.19237 91.881 6.26012 92.1249 6.26012C92.3688 6.26012 92.5721 6.19237 92.7347 6.05686ZM96.6371 8.82109C96.6371 9.0379 96.5694 9.2005 96.4339 9.3089C96.3255 9.4173 96.1629 9.4715 95.9461 9.4715C95.7021 9.4715 95.5124 9.37665 95.3769 9.18695C95.2685 9.02435 95.2143 8.75334 95.2143 8.37394V8.08939C95.2143 7.70998 95.2821 7.43898 95.4176 7.27638C95.526 7.08668 95.7021 6.99182 95.9461 6.99182C96.19 6.99182 96.3661 7.04603 96.4745 7.15443C96.5829 7.26283 96.6371 7.43898 96.6371 7.68288H97.3688C97.3417 7.27638 97.2062 6.96472 96.9623 6.74792C96.6913 6.53112 96.3526 6.42272 95.9461 6.42272C95.6479 6.42272 95.3905 6.49047 95.1737 6.62597C94.9569 6.76147 94.7807 6.96472 94.6452 7.23573C94.5368 7.47963 94.4826 7.77773 94.4826 8.13004V8.33329C94.4826 8.87529 94.6181 9.29535 94.8891 9.59345C95.133 9.91865 95.4853 10.0677 95.9461 10.0406C96.3526 10.0406 96.6913 9.9322 96.9623 9.7154C97.2062 9.4986 97.3417 9.2005 97.3688 8.82109H96.6371ZM98.9948 8.57719H99.4013L100.336 9.99995H101.19L99.9704 8.13004L101.068 6.46337H100.174L99.32 7.88613H98.9948V6.46337H98.2631V9.99995H98.9948V8.57719ZM104.645 8.17069C104.645 7.81838 104.577 7.52028 104.442 7.27638C104.334 7.00537 104.157 6.80212 103.914 6.66662C103.697 6.50402 103.439 6.42272 103.141 6.42272C103.06 6.42272 102.992 6.43627 102.938 6.46337C102.857 6.46337 102.789 6.47692 102.735 6.50402C102.653 6.50402 102.586 6.51757 102.531 6.54467C102.477 6.57177 102.409 6.61242 102.328 6.66662C102.274 6.69372 102.22 6.73437 102.166 6.78857C102.111 6.81567 102.071 6.85632 102.044 6.91052C101.989 6.96472 101.949 7.01892 101.922 7.07313C101.867 7.12733 101.827 7.19508 101.8 7.27638C101.691 7.52028 101.637 7.81838 101.637 8.17069V8.37394C101.637 8.69914 101.691 8.99724 101.8 9.26825C101.935 9.53925 102.111 9.7425 102.328 9.878C102.572 10.0135 102.843 10.0813 103.141 10.0813C103.195 10.0813 103.263 10.0813 103.344 10.0813C103.426 10.0813 103.493 10.0677 103.548 10.0406C103.602 10.0135 103.67 9.9864 103.751 9.9593C103.805 9.9322 103.859 9.9051 103.914 9.878C103.995 9.8509 104.049 9.81025 104.076 9.75605C104.13 9.70185 104.185 9.64765 104.239 9.59345C104.293 9.56635 104.334 9.51215 104.361 9.43085C104.388 9.37665 104.415 9.32245 104.442 9.26825C104.577 8.99724 104.645 8.68559 104.645 8.33329V8.17069ZM103.914 8.33329C103.914 8.71269 103.846 8.99724 103.71 9.18695C103.575 9.37665 103.385 9.4715 103.141 9.4715C102.87 9.4715 102.68 9.37665 102.572 9.18695C102.437 8.97014 102.369 8.68559 102.369 8.33329V8.17069C102.369 7.79128 102.437 7.50673 102.572 7.31703C102.68 7.12733 102.87 7.03247 103.141 7.03247C103.385 7.03247 103.575 7.12733 103.71 7.31703C103.846 7.50673 103.914 7.79128 103.914 8.17069V8.33329ZM106.312 8.49589H107.694V7.92678H106.312V7.07313H107.938V6.46337H105.58V10.0406H107.938V9.43085H106.312V8.49589ZM64.2794 13.5365H63.5477V15.1626C63.3309 15.2168 63.1005 15.2439 62.8566 15.2439C62.6127 15.2439 62.4501 15.1897 62.3688 15.0813C62.2604 15 62.2062 14.8645 62.2062 14.6748V13.5365H61.4745V14.6748C61.4745 15.0542 61.5965 15.3387 61.8404 15.5284C62.0572 15.7181 62.3959 15.813 62.8566 15.813C62.9108 15.813 62.965 15.813 63.0192 15.813C63.1005 15.813 63.1683 15.813 63.2225 15.813C63.2767 15.813 63.3309 15.7994 63.3851 15.7723C63.4393 15.7723 63.4935 15.7723 63.5477 15.7723V17.1138H64.2794V13.5365ZM66.068 15.5284H67.4908V14.9593H66.068V14.1056H67.694V13.5365H65.3363V17.0731H67.7347V16.504H66.068V15.5284ZM68.5883 13.5365V17.0731H69.32V16.0975L69.2387 14.4308L70.2143 17.0731H70.7021L71.6778 14.4308L71.5965 16.0975V17.0731H72.3282V13.5365H71.3526L70.4582 16.0975L69.5233 13.5365H68.5883ZM75.5395 17.0731H76.2713V13.5365H73.3851V17.0731H74.1168V14.1056H75.5395V17.0731ZM78.0192 15.8943V13.5365H77.2875V17.0731H78.0192L79.442 14.7154V17.0731H80.2143V13.5365H79.442L78.0192 15.8943ZM83.9542 16.3008C84.0626 16.0298 84.1168 15.7181 84.1168 15.3658V15.2439C84.1168 14.8916 84.0626 14.5799 83.9542 14.3089C83.8187 14.0379 83.6425 13.8346 83.4257 13.6991C83.1818 13.5636 82.9108 13.4959 82.6127 13.4959C82.3146 13.4959 82.0572 13.5636 81.8404 13.6991C81.5965 13.8346 81.4203 14.0379 81.3119 14.3089C81.1764 14.5799 81.1087 14.8916 81.1087 15.2439V15.4065C81.1087 15.7588 81.1764 16.0569 81.3119 16.3008C81.4203 16.5718 81.5965 16.775 81.8404 16.9105C82.0572 17.046 82.3146 17.1138 82.6127 17.1138C82.9108 17.1138 83.1818 17.046 83.4257 16.9105C83.4799 16.8834 83.5341 16.8428 83.5883 16.7886C83.6425 16.7615 83.6832 16.7208 83.7103 16.6666C83.7645 16.6124 83.8187 16.5582 83.8729 16.504C83.9 16.4227 83.9271 16.355 83.9542 16.3008ZM83.1818 14.3902C83.3173 14.5799 83.3851 14.8509 83.3851 15.2032V15.4065C83.3851 15.7588 83.3173 16.0433 83.1818 16.2601C83.0463 16.4498 82.8566 16.5447 82.6127 16.5447C82.3688 16.5447 82.1791 16.4363 82.0436 16.2195C81.9081 16.0298 81.8404 15.7452 81.8404 15.3658V15.2032C81.8404 14.8238 81.9081 14.5392 82.0436 14.3495C82.1791 14.1598 82.3688 14.065 82.6127 14.065C82.8566 14.065 83.0463 14.1734 83.1818 14.3902ZM87.9379 13.5365H87.2062V14.9593H85.7835V13.5365H85.0517V17.0731H85.7835V15.5691H87.2062V17.0731H87.9379V13.5365ZM89.4826 17.0731L89.7265 16.3414H91.0274L91.2713 17.0731H92.0436L90.7428 13.5365H90.0517L88.7103 17.0731H89.4826ZM89.9298 15.7723L90.3769 14.4308L90.8241 15.7723H89.9298ZM95.0517 13.5365H92.1656V14.1056H93.2225V17.0731H93.9948V14.1056H95.0517V13.5365ZM98.0192 17.0731H98.7509V13.5365H98.0192V14.9593H96.5965V13.5365H95.8648V17.0731H96.5965V15.5691H98.0192V17.0731ZM102.694 15.3658V15.2439C102.694 14.8916 102.64 14.5799 102.531 14.3089C102.396 14.0379 102.22 13.8346 102.003 13.6991C101.759 13.5636 101.488 13.4959 101.19 13.4959C101.136 13.4959 101.068 13.4959 100.987 13.4959C100.932 13.4959 100.865 13.5094 100.783 13.5365C100.729 13.5636 100.661 13.5907 100.58 13.6178C100.526 13.6449 100.472 13.672 100.418 13.6991C100.174 13.8346 99.9975 14.0379 99.8891 14.3089C99.7536 14.5799 99.6859 14.8916 99.6859 15.2439V15.4065C99.6859 15.7588 99.7536 16.0569 99.8891 16.3008C99.9975 16.5718 100.174 16.775 100.418 16.9105C100.634 17.046 100.892 17.1138 101.19 17.1138C101.271 17.1409 101.339 17.1409 101.393 17.1138C101.475 17.1138 101.542 17.1002 101.596 17.0731C101.678 17.0731 101.746 17.0596 101.8 17.0325C101.881 17.0054 101.949 16.9647 102.003 16.9105C102.057 16.8834 102.111 16.8428 102.166 16.7886C102.22 16.7615 102.26 16.7208 102.288 16.6666C102.342 16.6124 102.382 16.5582 102.409 16.504C102.464 16.4227 102.504 16.355 102.531 16.3008C102.667 16.0298 102.735 15.7181 102.735 15.3658H102.694ZM101.922 15.4065C101.922 15.7588 101.854 16.0433 101.718 16.2601C101.583 16.4498 101.393 16.5447 101.149 16.5447C100.905 16.5447 100.716 16.4363 100.58 16.2195C100.445 16.0298 100.377 15.7452 100.377 15.3658V15.2032C100.377 14.8238 100.445 14.5392 100.58 14.3495C100.716 14.1598 100.905 14.065 101.149 14.065C101.393 14.065 101.583 14.1734 101.718 14.3902C101.854 14.5799 101.922 14.8509 101.922 15.2032V15.4065ZM104.32 15.5691H105.743V15H104.32V14.1463H105.987V13.5365H103.588V17.1138H105.987V16.504H104.32V15.5691ZM64.7672 23.5772H64.3607V20.6097H62.0436L61.9217 22.1951C61.8946 22.5474 61.8404 22.8319 61.7591 23.0487C61.6778 23.2926 61.5694 23.4688 61.4339 23.5772H61.1493L61.19 25.0406H61.881V24.1869H64.0355V25.0406H64.7265L64.7672 23.5772ZM62.6127 22.1544L62.694 21.2195H63.5883V23.5772H62.2469C62.4637 23.252 62.5856 22.7777 62.6127 22.1544ZM65.5395 20.6097V24.1869H66.9217C67.3282 24.1869 67.6398 24.0921 67.8566 23.9024C68.0734 23.7398 68.1818 23.4823 68.1818 23.13C68.1818 22.9403 68.1276 22.7777 68.0192 22.6422C67.9921 22.588 67.965 22.5474 67.9379 22.5203C67.9108 22.4932 67.8702 22.4661 67.816 22.439C67.7889 22.4119 67.7482 22.3983 67.694 22.3983C67.6669 22.3712 67.6263 22.3577 67.5721 22.3577C67.7347 22.3035 67.8702 22.2086 67.9786 22.0731C68.0599 21.9376 68.1005 21.775 68.1005 21.5853C68.1005 21.2872 67.9921 21.0569 67.7753 20.8943C67.5314 20.7046 67.1927 20.6097 66.7591 20.6097H65.5395ZM66.8404 22.1138H66.2713V21.2195H66.7997C67.0165 21.2195 67.1656 21.2601 67.2469 21.3414C67.3282 21.3956 67.3688 21.504 67.3688 21.6666C67.3688 21.9647 67.1927 22.1138 66.8404 22.1138ZM66.2713 23.6178V22.6422H66.9623C67.2875 22.6422 67.4501 22.8048 67.4501 23.13C67.4501 23.2655 67.4095 23.3739 67.3282 23.4552C67.2198 23.5365 67.0843 23.5907 66.9217 23.6178H66.2713ZM69.8485 23.0081V20.6097H69.1168V24.1869H69.8485L71.2713 21.8292V24.1869H72.003V20.6097H71.2713L69.8485 23.0081ZM75.6615 22.7642H76.068L76.8404 24.2276H77.7347L76.6371 22.317L77.694 20.6504H76.7591L75.9867 22.1138H75.6615V20.6504H74.9298V22.1138H74.5639L73.7509 20.6504H72.8566L73.9135 22.317L72.7753 24.2276H73.7103L74.4826 22.7642H74.9298V24.2276H75.6615V22.7642ZM80.6615 22.0731H79.2387V21.2195H80.9054V20.6504H78.507V24.1869H80.9054V23.6178H79.2387V22.6422H80.6615V22.0731ZM83.9135 24.1869H84.6452V20.6504H83.9135V22.0731H82.4908V20.6504H81.7591V24.1869H82.4908V22.6829H83.9135V24.1869ZM86.4339 23.0081V20.6097H85.7022V24.1869H86.4339L87.8566 21.8292V24.1869H88.5883V20.6097H87.8566L86.4339 23.0081ZM90.3769 22.6829H91.7591V22.1138H90.3769V21.2601H92.003V20.6504H89.6452V24.2276H92.003V23.6178H90.3769V22.6829ZM64.32 27.7642H61.4339V31.3008H62.1656V28.3333H63.5883V31.3008H64.32V27.7642ZM68.0599 30.5284C68.1954 30.2845 68.2631 29.9864 68.2631 29.6341V29.4715C68.2631 29.1192 68.1954 28.8075 68.0599 28.5365C67.9515 28.2655 67.7753 28.0623 67.5314 27.9268C67.3146 27.7913 67.0572 27.7235 66.7591 27.7235C66.461 27.7235 66.19 27.7913 65.9461 27.9268C65.7292 28.0623 65.5531 28.2655 65.4176 28.5365C65.2821 28.8075 65.2143 29.1192 65.2143 29.4715V29.6341C65.2143 29.9864 65.2821 30.2981 65.4176 30.5691C65.5531 30.813 65.7292 31.0162 65.9461 31.1788C66.19 31.3143 66.461 31.3821 66.7591 31.3821C67.0572 31.3821 67.3146 31.3008 67.5314 31.1382C67.7753 31.0027 67.9515 30.7994 68.0599 30.5284ZM67.3282 28.6178C67.4637 28.8075 67.5314 29.0921 67.5314 29.4715V29.6341C67.5043 30.0135 67.4366 30.2981 67.3282 30.4878C67.1927 30.6775 67.003 30.7723 66.7591 30.7723C66.4881 30.7723 66.2848 30.6775 66.1493 30.4878C66.0138 30.271 65.9596 29.9864 65.9867 29.6341V29.4715C65.9867 29.0921 66.0545 28.8075 66.19 28.6178C66.2984 28.4281 66.4881 28.3333 66.7591 28.3333C67.003 28.3333 67.1927 28.4281 67.3282 28.6178ZM73.7103 27.7642H70.8241V31.3414H71.5558V28.3739H72.9786V31.3414H73.7103V27.7642ZM75.4989 31.3008V30.0406H76.1493C76.5829 30.0406 76.9217 29.9458 77.1656 29.756C77.3824 29.5663 77.4908 29.2953 77.4908 28.943C77.4908 28.6991 77.4366 28.4959 77.3282 28.3333C77.3011 28.2791 77.274 28.2249 77.2469 28.1707C77.2198 28.1436 77.1791 28.1165 77.1249 28.0894C77.0978 28.0352 77.0572 27.9945 77.003 27.9674C76.9759 27.9403 76.9352 27.9132 76.881 27.8861C76.6642 27.8048 76.4203 27.7642 76.1493 27.7642H74.7672V31.3008H75.4989ZM76.1493 29.4715H75.4989V28.3333H76.19C76.3526 28.3604 76.4881 28.4146 76.5965 28.4959C76.7049 28.6043 76.7591 28.7533 76.7591 28.943C76.7591 29.1056 76.7049 29.2276 76.5965 29.3089C76.4881 29.4173 76.339 29.4715 76.1493 29.4715ZM81.3119 29.4308C81.3119 29.0785 81.2442 28.7804 81.1087 28.5365C81.0003 28.2655 80.8241 28.0623 80.5802 27.9268C80.3634 27.7642 80.1059 27.6829 79.8078 27.6829C79.7265 27.6829 79.6588 27.6964 79.6046 27.7235C79.5233 27.7235 79.4555 27.7371 79.4013 27.7642C79.32 27.7642 79.2523 27.7777 79.1981 27.8048C79.1439 27.8319 79.0761 27.8726 78.9948 27.9268C78.778 28.0623 78.6019 28.2655 78.4664 28.5365C78.358 28.7804 78.3038 29.0785 78.3038 29.4308V29.6341C78.3038 29.9593 78.358 30.2574 78.4664 30.5284C78.6019 30.7994 78.7916 31.0027 79.0355 31.1382C79.2523 31.2737 79.5097 31.3414 79.8078 31.3414C79.8891 31.3414 79.9569 31.3414 80.0111 31.3414C80.0924 31.3414 80.1601 31.3279 80.2143 31.3008C80.2956 31.2737 80.3634 31.2466 80.4176 31.2195C80.4718 31.1924 80.5395 31.1653 80.6209 31.1382C80.6751 31.1111 80.7292 31.0704 80.7834 31.0162C80.8376 30.962 80.8783 30.9078 80.9054 30.8536C80.9596 30.7994 81.0003 30.7452 81.0274 30.691C81.0816 30.6368 81.1222 30.5826 81.1493 30.5284C81.2577 30.2574 81.3119 29.9458 81.3119 29.5935V29.4308ZM80.5802 29.5935C80.5802 29.9729 80.5124 30.2574 80.3769 30.4471C80.2414 30.6368 80.0517 30.7317 79.8078 30.7317C79.5639 30.7317 79.3742 30.6368 79.2387 30.4471C79.1032 30.2574 79.0355 29.9729 79.0355 29.5935V29.4308C79.0355 29.0514 79.1032 28.7669 79.2387 28.5772C79.3742 28.3875 79.5639 28.2926 79.8078 28.2926C80.0517 28.2926 80.2414 28.3875 80.3769 28.5772C80.5124 28.7669 80.5802 29.0514 80.5802 29.4308V29.5935ZM84.4013 28.0487H84.3607V27.5609H83.629V28.0487H83.5477C83.4935 28.0487 83.4393 28.0487 83.3851 28.0487C83.3038 28.0758 83.236 28.0894 83.1818 28.0894C83.1276 28.1165 83.0599 28.1436 82.9786 28.1707C82.9244 28.1978 82.8702 28.2249 82.816 28.252C82.7618 28.2791 82.7076 28.3062 82.6534 28.3333C82.5992 28.3875 82.5585 28.4281 82.5314 28.4552C82.4772 28.5094 82.4366 28.5636 82.4095 28.6178C82.3553 28.672 82.3146 28.7262 82.2875 28.7804C82.1791 28.9972 82.1249 29.2411 82.1249 29.5121C82.1249 29.8103 82.1791 30.0677 82.2875 30.2845C82.423 30.5013 82.5992 30.6775 82.816 30.813C83.0599 30.9214 83.3173 30.9756 83.5883 30.9756H83.629V31.4227H84.3607V30.9756C84.8214 30.9756 85.1872 30.8401 85.4582 30.5691C85.7292 30.2981 85.8648 29.9458 85.8648 29.5121C85.8648 29.2411 85.797 28.9837 85.6615 28.7398C85.6344 28.6856 85.6073 28.6449 85.5802 28.6178C85.526 28.5636 85.4853 28.5094 85.4582 28.4552C85.404 28.401 85.3498 28.3604 85.2956 28.3333C85.2414 28.3062 85.1872 28.2791 85.133 28.252C84.9162 28.1165 84.6723 28.0487 84.4013 28.0487ZM83.0192 28.9024C83.1547 28.7398 83.3444 28.6585 83.5883 28.6585H83.629V30.3658H83.5883C83.3444 30.3658 83.1547 30.2981 83.0192 30.1626C82.8837 30 82.816 29.7967 82.816 29.5528C82.816 29.2547 82.8837 29.0379 83.0192 28.9024ZM84.3607 30.3658V28.6585H84.4013C84.6452 28.6585 84.8349 28.7398 84.9704 28.9024C85.1059 29.0379 85.1737 29.2411 85.1737 29.5121C85.1737 29.7832 85.1059 30 84.9704 30.1626C84.8349 30.2981 84.6452 30.3658 84.4013 30.3658H84.3607ZM88.8322 29.1869H87.4501V28.3333H89.0761V27.7235H86.7184V31.3008H89.1168V30.691H87.4501V29.756H88.8322V29.1869ZM92.2469 31.0162C92.4908 30.7994 92.6263 30.5013 92.6534 30.1219V30.0813H91.9217C91.9217 30.2981 91.8675 30.4607 91.7591 30.5691C91.6236 30.6775 91.4474 30.7317 91.2306 30.7317C90.9867 30.7317 90.797 30.6504 90.6615 30.4878C90.5531 30.2981 90.4989 30.0135 90.4989 29.6341V29.3495C90.4989 28.9972 90.5666 28.7262 90.7021 28.5365C90.8105 28.3739 90.9867 28.2926 91.2306 28.2926C91.4745 28.2926 91.6507 28.3468 91.7591 28.4552C91.8675 28.5365 91.9217 28.6991 91.9217 28.943H92.6534C92.6263 28.5365 92.4908 28.2249 92.2469 28.0081C91.9759 27.7913 91.6371 27.6829 91.2306 27.6829C90.9325 27.6829 90.675 27.7506 90.4582 27.8861C90.404 27.9403 90.3498 27.981 90.2956 28.0081C90.2414 28.0623 90.2008 28.1165 90.1737 28.1707C90.1195 28.2249 90.0788 28.2791 90.0517 28.3333C89.9975 28.3875 89.9569 28.4417 89.9298 28.4959C89.8214 28.7669 89.7672 29.065 89.7672 29.3902V29.6341C89.7672 30.149 89.9027 30.5691 90.1737 30.8943C90.4176 31.1924 90.7699 31.3414 91.2306 31.3414C91.6371 31.3414 91.9759 31.233 92.2469 31.0162ZM96.3526 30.0813H95.6208C95.6208 30.2981 95.5531 30.4607 95.4176 30.5691C95.3092 30.6775 95.1466 30.7317 94.9298 30.7317C94.6859 30.7317 94.4962 30.6504 94.3607 30.4878C94.2523 30.2981 94.1981 30.0135 94.1981 29.6341V29.3495C94.1981 28.9972 94.2658 28.7262 94.4013 28.5365C94.5097 28.3739 94.6859 28.2926 94.9298 28.2926C95.1466 28.2926 95.3092 28.3468 95.4176 28.4552C95.526 28.5365 95.5937 28.6991 95.6208 28.943H96.3526C96.3255 28.5365 96.19 28.2249 95.9461 28.0081C95.675 27.7913 95.3363 27.6829 94.9298 27.6829C94.6317 27.6829 94.3742 27.7506 94.1574 27.8861C94.1032 27.9403 94.049 27.981 93.9948 28.0081C93.9406 28.0623 93.8864 28.1165 93.8322 28.1707C93.8051 28.2249 93.7645 28.2791 93.7103 28.3333C93.6832 28.3875 93.6561 28.4417 93.629 28.4959C93.5206 28.7669 93.4664 29.065 93.4664 29.3902V29.6341C93.4664 30.149 93.5883 30.5691 93.8322 30.8943C94.1032 31.1924 94.4691 31.3414 94.9298 31.3414C95.3363 31.3414 95.675 31.233 95.9461 31.0162C96.19 30.7994 96.3255 30.5013 96.3526 30.1219V30.0813ZM100.092 27.7235H99.3607L97.9379 30.0813V27.7235H97.2062V31.2601H97.9379L99.3607 28.9024V31.2601H100.092V27.7235ZM104.035 29.4308C104.035 29.0785 103.981 28.7669 103.873 28.4959C103.737 28.2249 103.561 28.0216 103.344 27.8861C103.101 27.7506 102.83 27.6829 102.531 27.6829C102.477 27.6829 102.409 27.6829 102.328 27.6829C102.274 27.6829 102.206 27.6964 102.125 27.7235C102.071 27.7506 102.003 27.7777 101.922 27.8048C101.867 27.8319 101.813 27.859 101.759 27.8861C101.515 28.0216 101.339 28.2249 101.231 28.4959C101.095 28.7669 101.027 29.0785 101.027 29.4308V29.5935C101.027 29.9458 101.095 30.2574 101.231 30.5284C101.339 30.7723 101.515 30.962 101.759 31.0975C101.976 31.2601 102.233 31.3414 102.531 31.3414C102.613 31.3414 102.694 31.3279 102.775 31.3008C102.83 31.3008 102.897 31.2872 102.979 31.2601C103.033 31.2601 103.087 31.2466 103.141 31.2195C103.222 31.1924 103.29 31.1517 103.344 31.0975C103.399 31.0704 103.453 31.0298 103.507 30.9756C103.561 30.9485 103.615 30.9078 103.67 30.8536C103.697 30.7994 103.737 30.7452 103.792 30.691C103.819 30.6368 103.846 30.5691 103.873 30.4878C104.008 30.2439 104.063 29.9458 104.035 29.5935V29.4308ZM103.304 29.5935C103.304 29.9458 103.236 30.2303 103.101 30.4471C102.965 30.6368 102.775 30.7317 102.531 30.7317C102.288 30.7317 102.098 30.6233 101.962 30.4065C101.827 30.2168 101.759 29.9458 101.759 29.5935V29.3902C101.759 29.0379 101.827 28.7669 101.962 28.5772C102.098 28.3875 102.288 28.2926 102.531 28.2926C102.775 28.2926 102.965 28.3875 103.101 28.5772C103.236 28.7669 103.304 29.0514 103.304 29.4308V29.5935ZM107.125 31.2601H107.857V27.7235H107.125V29.1463H105.702V27.7235H104.97V31.2601H105.702V29.756H107.125V31.2601ZM111.19 31.2601H111.962L110.661 27.6829H109.97L108.629 31.2601H109.401L109.645 30.5284H110.946L111.19 31.2601ZM110.296 28.5772L110.743 29.9187H109.848L110.296 28.5772ZM115.743 31.2195V27.6829H113.385L113.304 29.3089C113.277 29.7967 113.222 30.1355 113.141 30.3252C113.087 30.4878 112.965 30.5826 112.775 30.6097L112.653 30.6504V31.2195H112.816C113.087 31.2195 113.304 31.1653 113.466 31.0569C113.629 30.9485 113.751 30.7723 113.832 30.5284C113.914 30.2845 113.968 29.9458 113.995 29.5121L114.076 28.252H115.011V31.2195H115.743ZM117.531 27.6829H116.8V31.2195H118.141C118.548 31.2195 118.859 31.1111 119.076 30.8943C119.347 30.7046 119.483 30.4336 119.483 30.0813C119.483 29.729 119.347 29.4579 119.076 29.2682C118.832 29.0514 118.507 28.943 118.101 28.943H117.531V27.6829ZM118.141 29.5528C118.304 29.5799 118.439 29.6341 118.548 29.7154C118.656 29.8238 118.71 29.9458 118.71 30.0813C118.71 30.271 118.656 30.42 118.548 30.5284C118.439 30.6097 118.29 30.6504 118.101 30.6504H117.531V29.5528H118.141ZM122.491 31.2601H123.182V27.6829H122.491V29.1463H121.027V27.6829H120.296V31.2601H121.027V29.7154H122.491V31.2601ZM127.166 29.4308C127.166 29.0785 127.098 28.7669 126.962 28.4959C126.827 28.2249 126.651 28.0216 126.434 27.8861C126.19 27.7506 125.919 27.6829 125.621 27.6829C125.567 27.6829 125.499 27.6829 125.418 27.6829C125.363 27.6829 125.296 27.6964 125.214 27.7235C125.16 27.7506 125.092 27.7777 125.011 27.8048C124.957 27.8319 124.903 27.859 124.848 27.8861C124.605 28.0216 124.428 28.2249 124.32 28.4959C124.185 28.7669 124.117 29.0785 124.117 29.4308V29.5935C124.117 29.9458 124.185 30.2439 124.32 30.4878C124.428 30.7588 124.605 30.962 124.848 31.0975C125.092 31.233 125.35 31.3008 125.621 31.3008C125.702 31.3008 125.783 31.3008 125.865 31.3008C125.919 31.3008 125.987 31.2872 126.068 31.2601C126.122 31.233 126.176 31.2059 126.231 31.1788C126.312 31.1517 126.38 31.1246 126.434 31.0975C126.488 31.0704 126.542 31.0298 126.596 30.9756C126.651 30.9214 126.705 30.8807 126.759 30.8536C126.786 30.7994 126.827 30.7317 126.881 30.6504C126.908 30.5962 126.935 30.542 126.962 30.4878C127.098 30.2168 127.166 29.9051 127.166 29.5528V29.4308ZM126.393 29.6341C126.393 29.9864 126.325 30.2574 126.19 30.4471C126.054 30.6368 125.865 30.7317 125.621 30.7317C125.377 30.7317 125.187 30.6368 125.052 30.4471C124.916 30.2574 124.848 29.9729 124.848 29.5935V29.4308C124.848 29.0514 124.916 28.7669 125.052 28.5772C125.187 28.3875 125.377 28.2926 125.621 28.2926C125.865 28.2926 126.054 28.3875 126.19 28.5772C126.325 28.794 126.393 29.0785 126.393 29.4308V29.6341ZM129.93 30.3658L129.035 27.7642H128.06V31.3414H128.792V30.3658L128.71 28.6991L129.686 31.3414H130.174L131.149 28.6991L131.068 30.3658V31.3414H131.8V27.7642H130.824L129.93 30.3658ZM133.426 27.8048H132.613L133.873 30.3252L133.792 30.5691C133.737 30.6504 133.683 30.7181 133.629 30.7723C133.575 30.7994 133.493 30.813 133.385 30.813C133.304 30.813 133.236 30.813 133.182 30.813V31.3821L133.466 31.4227C133.846 31.4227 134.117 31.2601 134.279 30.9349L134.401 30.7317L135.621 27.8048H134.848L134.198 29.4715L133.426 27.8048ZM63.3038 37.4796L62.4095 34.878H61.4339V38.4552H62.1656V37.4796L62.1249 35.813L63.0599 38.4552H63.5883L64.5233 35.813L64.442 37.4796V38.4552H65.1737V34.878H64.2387L63.3038 37.4796ZM68.2631 37.7235L68.507 38.4552H69.2794L67.9379 34.9187H67.2469L65.9461 38.4552H66.7184L66.9623 37.7235H68.2631ZM67.6127 35.813L68.0599 37.1544H67.1656L67.6127 35.813ZM72.2875 38.1707C72.5314 37.9539 72.6669 37.6558 72.694 37.2764V37.2357H71.9623C71.9623 37.4525 71.8946 37.6151 71.7591 37.7235C71.6507 37.8319 71.4881 37.8861 71.2713 37.8861C71.0274 37.8861 70.8376 37.8048 70.7021 37.6422C70.5937 37.4525 70.5395 37.168 70.5395 36.7886V36.504C70.5395 36.1517 70.6073 35.8807 70.7428 35.691C70.8512 35.5284 71.0274 35.4471 71.2713 35.4471C71.5152 35.4471 71.6913 35.5013 71.7997 35.6097C71.9081 35.7181 71.9623 35.8807 71.9623 36.0975H72.694C72.6669 35.691 72.5314 35.3794 72.2875 35.1626C72.0165 34.9458 71.6778 34.8374 71.2713 34.8374C70.9732 34.8374 70.7157 34.9051 70.4989 35.0406C70.2821 35.2032 70.1059 35.4065 69.9704 35.6504C69.862 35.9214 69.8078 36.2195 69.8078 36.5447V36.7886C69.8078 37.3035 69.9433 37.7235 70.2143 38.0487C70.4582 38.3468 70.8106 38.4959 71.2713 38.4959C71.6778 38.4959 72.0165 38.3875 72.2875 38.1707ZM76.2713 34.878H73.3444V35.4878H74.442V38.4552H75.1737V35.4878H76.2713V34.878ZM77.816 36.9105H79.1981V36.3414H77.816V35.4878H79.442V34.878H77.0843V38.4552H79.442V37.8455H77.816V36.9105ZM81.7184 37.2357C82.1249 37.2357 82.4501 37.1273 82.694 36.9105C82.9379 36.7208 83.0599 36.4498 83.0599 36.0975C83.0599 35.8536 83.0057 35.6504 82.8973 35.4878C82.7889 35.2981 82.6263 35.1626 82.4095 35.0813C82.2198 34.9729 81.9894 34.9187 81.7184 34.9187H80.3363V38.4959H81.068V37.2357H81.7184ZM81.068 35.5284H81.7184C81.9081 35.5284 82.0572 35.5826 82.1656 35.691C82.274 35.7994 82.3282 35.9349 82.3282 36.0975C82.3282 36.2601 82.274 36.3956 82.1656 36.504C82.0572 36.5853 81.9081 36.626 81.7184 36.626H81.068V35.5284ZM86.3119 38.2113C86.5829 37.9945 86.732 37.6964 86.7591 37.317V37.2764H86.0273C86.0002 37.4932 85.9325 37.6558 85.8241 37.7642C85.7157 37.8726 85.5395 37.9268 85.2956 37.9268C85.0517 37.9268 84.8756 37.8455 84.7672 37.6829C84.6588 37.4932 84.6046 37.2086 84.6046 36.8292V36.5447C84.6046 36.1924 84.6588 35.9214 84.7672 35.7317C84.9027 35.5691 85.0924 35.4878 85.3363 35.4878C85.5531 35.4878 85.7157 35.542 85.8241 35.6504C85.9325 35.7317 86.0002 35.8943 86.0273 36.1382H86.7591C86.7049 35.7317 86.5558 35.42 86.3119 35.2032C86.068 34.9864 85.7428 34.878 85.3363 34.878C85.0382 34.878 84.7672 34.9458 84.5233 35.0813C84.4691 35.1355 84.4149 35.1761 84.3607 35.2032C84.3336 35.2574 84.2929 35.3116 84.2387 35.3658C84.1845 35.42 84.1439 35.4742 84.1168 35.5284C84.0897 35.5826 84.0626 35.6368 84.0355 35.691C83.9 35.962 83.8322 36.2601 83.8322 36.5853V36.8292C83.8322 37.3441 83.9677 37.7642 84.2387 38.0894C84.5097 38.3875 84.862 38.5365 85.2956 38.5365C85.7293 38.5365 86.068 38.4281 86.3119 38.2113ZM90.2956 34.9187H87.4095V35.5284H88.4664V38.4959H89.1981V35.5284H90.2956V34.9187ZM91.1086 34.9187V38.4959H92.4908C92.8973 38.4959 93.2089 38.401 93.4257 38.2113C93.6425 38.0487 93.7509 37.7913 93.7509 37.439C93.7509 37.2493 93.6967 37.0731 93.5883 36.9105C93.5612 36.8834 93.5341 36.8563 93.507 36.8292C93.4799 36.8021 93.4528 36.775 93.4257 36.7479C93.3715 36.7208 93.3309 36.7073 93.3038 36.7073C93.2496 36.6802 93.2089 36.6666 93.1818 36.6666C93.2089 36.6395 93.236 36.6124 93.2631 36.5853C93.3173 36.5853 93.358 36.5718 93.3851 36.5447C93.4122 36.5176 93.4393 36.4905 93.4664 36.4634C93.4935 36.4363 93.5206 36.4092 93.5477 36.3821C93.629 36.2466 93.6696 36.084 93.6696 35.8943C93.6696 35.5962 93.5612 35.3523 93.3444 35.1626C93.1276 35 92.8024 34.9187 92.3688 34.9187H91.1086ZM92.3688 36.4227H91.8404V35.5284H92.3688C92.5585 35.5284 92.694 35.5555 92.7753 35.6097C92.8837 35.691 92.9379 35.813 92.9379 35.9756C92.9379 36.2737 92.7482 36.4227 92.3688 36.4227ZM91.8404 37.8861V36.9512H92.4908C92.8431 36.9512 93.0192 37.1138 93.0192 37.439C93.0192 37.5745 92.965 37.6829 92.8566 37.7642C92.7753 37.8455 92.6398 37.8861 92.4501 37.8861H91.8404ZM95.133 34.9187H94.32L95.5802 37.4796L95.4989 37.6829C95.4447 37.7913 95.3905 37.859 95.3363 37.8861C95.255 37.9403 95.1737 37.9674 95.0924 37.9674C94.984 37.9674 94.9162 37.9539 94.8891 37.9268V38.5365H95.1737C95.5531 38.5365 95.8241 38.3739 95.9867 38.0487L96.1087 37.8455L97.3282 34.9187H96.5558L95.9054 36.626L95.133 34.9187ZM0.702148 25C0.702148 38.8211 12.0843 50.0813 26.0274 50.0813C28.9948 50.0813 31.9217 49.5934 34.6859 48.5772L32.8566 43.4959C30.6615 44.2682 28.3851 44.6748 26.0274 44.6748C15.0517 44.6748 6.10865 35.8536 6.10865 25C6.10865 19.5935 8.30377 14.5528 12.2469 10.813L8.54768 6.86987C3.46638 11.6666 0.702148 18.0894 0.702148 25Z" fill="#D0D0D0"/>
</g>
<defs>
<clipPath id="clip0_595_176">
<rect width="52.8455" height="50" fill="white" transform="translate(0.702148)"/>
</clipPath>
</defs>
</svg>
