<svg width="20" height="20" viewBox="0 0 20 20" fill="none" xmlns="http://www.w3.org/2000/svg">
<path d="M18.3808 4.36718L12.2358 1.43968C10.8831 0.631716 9.19953 0.61738 7.83328 1.40218L1.61914 4.36718C1.59582 4.37886 1.57164 4.39136 1.54914 4.40468C0.0744497 5.24789 -0.437504 7.12691 0.4057 8.6016C0.69152 9.10152 1.11195 9.51113 1.61914 9.78386L3.33332 10.6005V14.6839C3.33433 16.5098 4.52242 18.1229 6.26582 18.6655C7.47906 19.0165 8.73707 19.1884 10 19.1755C11.2627 19.1897 12.5207 19.0193 13.7342 18.6697C15.4776 18.1271 16.6657 16.5139 16.6667 14.688V10.5989L18.3334 9.80218V16.6755C18.3334 17.1357 18.7064 17.5088 19.1667 17.5088C19.6269 17.5088 20 17.1357 20 16.6755V6.6755C20.0055 5.69695 19.2329 4.79297 18.3808 4.36718ZM15 14.688C15.0004 15.7802 14.2918 16.7462 13.25 17.0739C12.1935 17.3757 11.0987 17.5223 9.99996 17.5089C8.90125 17.5223 7.80644 17.3757 6.74996 17.0739C5.70812 16.7462 4.99953 15.7802 4.99996 14.688V11.3947L7.76414 12.7114C8.44617 13.1164 9.22511 13.3292 10.0183 13.3272C10.7733 13.3326 11.5156 13.1327 12.1658 12.7489L15 11.3947V14.688ZM17.6666 8.27968L11.3816 11.2797C10.5053 11.79 9.4191 11.7755 8.55664 11.2422L2.40746 8.31718C1.72203 7.94757 1.46601 7.0923 1.83562 6.40691C1.96062 6.17511 2.14804 5.98297 2.37664 5.85218L8.62246 2.86886C9.49906 2.35972 10.5847 2.37414 11.4475 2.90636L17.5925 5.83386C18.0444 6.0848 18.3271 6.55867 18.3333 7.07554C18.3341 7.56515 18.082 8.02047 17.6666 8.27968Z" fill="#D0D0D0"/>
</svg>
