<svg width="17" height="17" viewBox="0 0 17 17" fill="none" xmlns="http://www.w3.org/2000/svg">
<g clip-path="url(#clip0_502_183)">
<path d="M8.49998 0.0356445C6.73247 0.0375856 5.0379 0.740588 3.78808 1.99041C2.53826 3.24023 1.83525 4.9348 1.83331 6.70231C1.83331 10.2236 7.43331 15.0576 8.06931 15.5976L8.49998 15.9616L8.93065 15.5976C9.56665 15.0576 15.1666 10.2236 15.1666 6.70231C15.1647 4.9348 14.4617 3.24023 13.2119 1.99041C11.9621 0.740588 10.2675 0.0375856 8.49998 0.0356445ZM8.49998 10.0356C7.84071 10.0356 7.19624 9.84015 6.64808 9.47388C6.09992 9.1076 5.67267 8.58701 5.42038 7.97792C5.16809 7.36884 5.10208 6.69861 5.2307 6.05201C5.35931 5.40541 5.67678 4.81146 6.14296 4.34529C6.60913 3.87911 7.20308 3.56164 7.84968 3.43303C8.49628 3.30441 9.1665 3.37042 9.77559 3.62271C10.3847 3.87501 10.9053 4.30225 11.2715 4.85041C11.6378 5.39857 11.8333 6.04304 11.8333 6.70231C11.8323 7.58604 11.4807 8.43327 10.8558 9.05816C10.2309 9.68306 9.38371 10.0346 8.49998 10.0356Z" fill="#1763F4"/>
<path d="M8.5 8.70227C9.60457 8.70227 10.5 7.80684 10.5 6.70227C10.5 5.5977 9.60457 4.70227 8.5 4.70227C7.39543 4.70227 6.5 5.5977 6.5 6.70227C6.5 7.80684 7.39543 8.70227 8.5 8.70227Z" fill="#1763F4"/>
</g>
<defs>
<clipPath id="clip0_502_183">
<rect width="16" height="16" fill="white" transform="translate(0.5 0.0356445)"/>
</clipPath>
</defs>
</svg>