<svg width="25" height="25" viewBox="0 0 25 25" fill="none" xmlns="http://www.w3.org/2000/svg">
<path d="M18.8171 1.25902L18.963 1.54884L20.054 4.45269C20.1393 4.68 20.3192 4.86185 20.5484 4.94709L23.3519 6.00028C24.5831 6.46058 25.2442 7.77518 24.9165 9.01969L24.837 9.26594L23.5337 12.1509C23.4841 12.261 23.4584 12.3805 23.4584 12.5013C23.4584 12.6221 23.4841 12.7416 23.5337 12.8517L24.7726 15.5794C25.0318 16.1512 25.0699 16.7987 24.8796 17.3969C24.6893 17.9952 24.284 18.5016 23.7421 18.8185L23.4523 18.9644L20.5484 20.0555C20.4361 20.0985 20.3342 20.1648 20.2493 20.25C20.1644 20.3352 20.0985 20.4374 20.0559 20.5499L19.0027 23.3533C18.7822 23.9419 18.3512 24.4278 17.7931 24.7168C17.2349 25.0059 16.5894 25.0775 15.9814 24.918L15.7352 24.8384L12.8503 23.5352C12.7401 23.4855 12.6207 23.4598 12.4998 23.4598C12.379 23.4598 12.2596 23.4855 12.1494 23.5352L9.42361 24.774C8.85185 25.0332 8.20432 25.0713 7.60609 24.881C7.00786 24.6907 6.50138 24.2855 6.18447 23.7436L6.03862 23.4537L4.94565 20.5499C4.90265 20.4376 4.83637 20.3356 4.75116 20.2507C4.66595 20.1658 4.56374 20.0999 4.45125 20.0574L1.64779 19.0042C1.0592 18.7837 0.573356 18.3526 0.284315 17.7945C-0.00472654 17.2364 -0.076406 16.5908 0.083153 15.9829L0.162711 15.7366L1.46784 12.8517C1.51751 12.7416 1.5432 12.6221 1.5432 12.5013C1.5432 12.3805 1.51751 12.261 1.46784 12.1509L0.227115 9.42505C-0.0322472 8.85351 -0.0706583 8.20614 0.119297 7.60794C0.309253 7.00974 0.714103 6.50312 1.25568 6.18592L1.5455 6.04006L4.45125 4.94519C4.56393 4.90242 4.66625 4.83624 4.75147 4.75102C4.83669 4.6658 4.90287 4.56347 4.94565 4.4508L5.99884 1.64734C6.21932 1.05915 6.65006 0.573618 7.20778 0.284614C7.7655 -0.00439059 8.41056 -0.076332 9.01824 0.0827009L9.26449 0.162259L12.1494 1.46738C12.2596 1.51706 12.379 1.54275 12.4998 1.54275C12.6207 1.54275 12.7401 1.51706 12.8503 1.46738L15.578 0.228557C16.1495 -0.0308049 16.7969 -0.069216 17.3951 0.12074C17.9933 0.310695 18.4999 0.71744 18.8171 1.25902ZM7.58242 2.24213L6.53112 5.04559C6.40389 5.38476 6.20553 5.69278 5.94938 5.94893C5.69323 6.20508 5.38522 6.40344 5.04604 6.53067L2.24258 7.58197L2.05694 7.67857C1.89505 7.79235 1.77777 7.95891 1.72524 8.14968C1.67271 8.34046 1.68819 8.54357 1.76902 8.72419L3.00785 11.45C3.31092 12.1168 3.31092 12.882 3.00785 13.5488L1.75765 16.303L1.70651 16.4754C1.67288 16.6701 1.70796 16.8705 1.80575 17.0422C1.90353 17.2139 2.05795 17.3464 2.24258 17.4168L5.04604 18.47C5.73175 18.7276 6.2735 19.2675 6.53112 19.9551L7.58242 22.7586L7.67902 22.9442C7.90633 23.2738 8.34579 23.4026 8.72464 23.2302L11.4504 21.9933C11.78 21.8436 12.1379 21.7662 12.4998 21.7662C12.8618 21.7662 13.2196 21.8436 13.5492 21.9933L16.3035 23.2435L16.4758 23.2927C16.6703 23.3265 16.8705 23.2917 17.0422 23.1942C17.2139 23.0968 17.3465 22.9428 17.4173 22.7586L18.4705 19.9551C18.5977 19.6159 18.796 19.3079 19.0522 19.0517C19.3084 18.7956 19.6164 18.5972 19.9555 18.47L22.759 17.4168L22.9446 17.3221C23.1062 17.2081 23.2231 17.0414 23.2753 16.8506C23.3275 16.6599 23.3117 16.4569 23.2307 16.2765L21.9937 13.5488C21.8441 13.2192 21.7666 12.8614 21.7666 12.4994C21.7666 12.1374 21.8441 11.7796 21.9937 11.45L23.2439 8.69767L23.2932 8.5234C23.3269 8.3289 23.2921 8.12871 23.1947 7.95701C23.0973 7.78532 22.9433 7.65276 22.759 7.58197L19.9555 6.53067C19.6164 6.40344 19.3084 6.20508 19.0522 5.94893C18.796 5.69278 18.5977 5.38476 18.4705 5.04559L17.4173 2.24213L17.3226 2.05649C17.2088 1.89459 17.0422 1.77732 16.8514 1.72479C16.6607 1.67226 16.4576 1.68773 16.2769 1.76857L13.5492 3.0074C13.2196 3.15705 12.8618 3.23448 12.4998 3.23448C12.1379 3.23448 11.78 3.15705 11.4504 3.0074L8.72274 1.76857L8.6716 1.74584C8.46135 1.66732 8.22852 1.67548 8.02429 1.76854C7.82005 1.8616 7.66112 2.03194 7.58242 2.24213ZM10.5639 15.0509L16.599 8.15592C16.7374 7.99981 16.9286 7.90031 17.1359 7.87651C17.3432 7.85271 17.552 7.90629 17.7222 8.02697C17.8924 8.14764 18.0121 8.32692 18.0582 8.5304C18.1044 8.73388 18.0738 8.94725 17.9723 9.12955L17.8719 9.26783L11.2421 16.8448C11.1078 16.9966 10.9239 17.0956 10.7232 17.1241C10.5226 17.1525 10.3184 17.1086 10.1472 17.0001L10.007 16.8864L7.16569 14.0451C7.01816 13.8966 6.93085 13.6988 6.9206 13.4897C6.91035 13.2807 6.97789 13.0753 7.11018 12.9131C7.24247 12.7509 7.43014 12.6434 7.63697 12.6115C7.84381 12.5795 8.05516 12.6253 8.23024 12.74L8.36284 12.8479L10.5639 15.0509Z" fill="#1763F4"/>
</svg>
